<svg width="126" height="40" viewBox="0 0 126 40" fill="none" xmlns="http://www.w3.org/2000/svg">
<path d="M0.270508 11.8722C0.870502 9.44827 1.90249 7.72028 3.34248 6.2083C6.96645 2.46433 11.5504 0.64035 16.5664 0.160355C27.1023 -0.871636 35.4782 3.08832 41.5261 11.7282C43.3501 14.3442 44.2621 17.3682 44.2861 20.6082C44.2861 21.3522 44.1661 22.0962 43.9501 22.8881C41.5021 13.0002 34.8302 7.40829 25.3743 5.05631C16.0384 2.75233 7.42244 4.02432 0.270508 11.8722Z" fill="#262626"/>
<path d="M21.9184 19.1202C18.0304 20.5841 14.2624 22.2641 10.3505 23.4161C7.39849 24.2801 4.56651 23.3921 2.21453 21.2801C-0.0654466 19.2162 -0.641441 16.0242 0.750546 13.2882C1.73454 11.2962 3.29452 9.88024 5.28651 8.65625C4.78251 9.83224 4.25452 10.7682 3.94252 11.7762C2.62253 16.0002 5.16651 19.3842 9.58247 19.1202C11.3105 19.0242 12.9904 18.4242 14.6944 17.9682C15.7264 17.7042 16.7344 17.2962 17.7664 16.9842C19.9024 16.3362 20.6464 16.6722 21.9184 19.1202Z" fill="#262626"/>
<path d="M5.98242 16.9844C6.55842 13.9605 9.55839 11.4645 13.1824 11.1045C17.5263 10.6485 21.1263 12.1365 23.6463 15.6644C25.2783 17.9444 26.5502 20.4884 28.0382 22.9124C28.8542 24.2564 29.7182 25.5764 30.6782 26.8003C32.2622 28.7923 34.1822 30.2803 37.0381 29.9443C35.5982 31.6243 33.5582 32.1763 31.8542 30.8563C30.1502 29.5603 28.6142 27.9043 27.3662 26.1283C25.9022 24.0644 24.8703 21.6644 23.5503 19.4804C21.9663 16.8404 19.9503 14.6084 16.6623 14.1045C14.0703 13.6965 11.8384 14.4404 10.1824 16.5524C8.8144 18.3284 7.9984 18.4484 5.98242 16.9844Z" fill="#262626"/>
<path d="M25.3984 40C25.4944 39.232 25.5424 38.8 25.6144 38.392C26.1664 34.24 24.1744 31.336 20.0705 30.352C17.3105 29.704 14.5505 29.1281 11.8386 28.3361C9.91857 27.7841 8.33458 26.5841 7.1106 24.4961C9.07858 24.8081 10.7346 24.2561 12.6065 25.1201C14.5505 26.0081 16.8545 26.0321 19.0145 26.4401C20.8625 26.8001 22.7825 26.9201 24.5104 27.5681C27.0784 28.5521 28.5904 30.616 28.7584 33.448C28.8784 36.088 27.6544 38.104 25.3984 40Z" fill="#262626"/>
<path d="M25.1582 15.4963C30.4382 14.7763 35.2141 15.5683 39.4141 18.7602C41.4541 20.2962 42.798 22.3602 43.23 24.9042C43.662 27.4002 43.11 29.6801 41.0941 31.3361C39.1021 32.9681 36.8221 32.8961 34.2541 32.2001C35.2141 31.8881 36.0061 31.6961 36.7261 31.3601C40.7821 29.5601 41.3101 24.5442 37.8301 21.1602C35.2621 18.6642 32.0221 17.7042 28.5662 17.8722C26.7182 17.9682 25.9022 17.2002 25.1582 15.4963Z" fill="#262626"/>
<path d="M81.1739 28.1442C79.4699 27.9762 78.8459 27.3762 78.7739 25.9842C78.7259 24.9042 78.7739 23.8242 78.7499 22.7682C78.7259 21.3283 78.2459 20.7763 77.022 20.7283C75.774 20.7043 75.27 21.2563 75.246 22.6962C75.222 23.8242 75.294 24.9522 75.198 26.0562C75.102 27.4242 74.382 28.0242 72.75 28.1202C72.75 26.2482 72.774 24.3762 72.75 22.4803C72.726 21.1603 72.03 20.5843 70.758 20.7283C69.822 20.8243 69.27 21.2803 69.27 22.2883C69.27 23.4882 69.294 24.7122 69.222 25.9122C69.15 27.2322 68.478 28.0722 66.966 28.1682C66.966 25.7202 66.63 23.2722 67.062 20.9683C67.542 18.3043 70.47 17.6563 72.966 18.5923C73.734 18.8803 74.238 18.9283 75.054 18.6163C78.2939 17.3683 81.2939 19.0243 81.2459 22.3843C81.1499 24.3042 81.1739 26.1762 81.1739 28.1442Z" fill="#262626"/>
<path d="M61.95 28.1679C60.462 28.1679 59.478 27.616 59.166 26.344C58.95 25.432 58.47 25.264 57.654 25.264C55.9741 25.264 55.2781 24.664 54.8701 22.84C55.7341 22.84 56.574 22.816 57.39 22.84C58.182 22.864 58.446 22.552 58.278 21.784C58.038 20.632 57.942 19.456 57.606 18.352C57.462 17.872 56.862 17.512 56.454 17.104C56.0221 17.536 55.3261 17.896 55.2301 18.4C54.7021 20.752 54.3421 23.152 53.8861 25.528C53.5261 27.3039 52.8061 27.9519 51.0781 28.1439C51.0781 27.88 51.0061 27.6159 51.0541 27.376C51.6301 24.208 52.2061 21.016 52.8061 17.848C53.2141 15.6881 54.5101 14.5121 56.406 14.5121C58.278 14.4881 59.694 15.7121 60.102 17.776C60.726 21.184 61.302 24.592 61.95 28.1679Z" fill="#262626"/>
<path d="M85.7819 21.9039C86.7179 21.9039 87.5339 21.9519 88.3259 21.8799C88.6138 21.8559 88.8539 21.5199 89.1178 21.3279C88.8539 21.1359 88.6138 20.8239 88.3259 20.7519C86.5499 20.3679 84.9419 21.3999 84.7739 22.9599C84.6059 24.5439 85.7819 25.5999 87.7019 25.7199C88.6619 25.7919 89.6698 25.9359 90.5338 26.3199C91.0378 26.5359 91.2778 27.3279 91.7818 28.0959C89.6698 28.0959 87.8699 28.3119 86.1419 28.0479C83.6219 27.6399 82.0379 25.1439 82.3259 22.6239C82.6139 20.1519 84.6299 18.3519 87.1739 18.2319C88.7099 18.16 90.1738 18.208 91.1338 19.6719C91.8298 20.7519 91.8538 21.8559 91.1338 22.9599C90.3898 24.1119 88.8539 24.7119 87.5819 24.3279C86.5499 24.0399 85.8299 23.3679 85.7819 21.9039Z" fill="#262626"/>
<path d="M116.574 28.144C116.574 26.08 116.55 24.112 116.598 22.1441C116.622 21.1121 116.214 20.6321 115.158 20.7281C114.534 20.7761 113.886 20.7281 113.286 20.8481C112.038 21.1121 111.27 22.1441 111.342 23.392C111.414 24.52 112.278 25.504 113.454 25.672C114.246 25.792 115.062 25.768 115.83 25.816C115.974 27.304 114.798 28.36 113.214 28.216C110.91 28.024 108.846 25.792 108.798 23.368C108.726 20.9201 110.622 18.6401 112.974 18.3281C113.022 18.3281 113.07 18.3041 113.118 18.3041C117.126 18.1121 119.43 17.9921 119.07 23.608C119.022 24.4 119.094 25.216 119.022 26.032C118.902 27.424 118.254 27.976 116.574 28.144Z" fill="#262626"/>
<path d="M101.214 28.1681C99.4617 27.9761 98.8137 27.3761 98.7657 25.8881C98.7177 24.7362 98.7657 23.5602 98.7177 22.4082C98.6937 21.2322 98.0217 20.7282 96.8937 20.7522C95.8377 20.8002 95.2137 21.2802 95.2137 22.4082C95.2137 23.5602 95.2617 24.7362 95.1657 25.8881C95.0697 27.4001 94.3737 28.0241 92.8137 28.1201C92.8137 25.8882 92.6937 23.6322 92.8617 21.4242C93.0057 19.4082 94.7817 18.2322 97.1577 18.2562C99.2937 18.2802 100.902 19.5762 101.166 21.4722C101.238 21.9522 101.214 22.4562 101.214 22.9362C101.214 24.6642 101.214 26.3681 101.214 28.1681Z" fill="#262626"/>
<path d="M104.838 15.7363C104.958 16.5043 104.814 17.5123 105.27 18.0163C105.654 18.4483 106.662 18.3043 107.478 18.4243C107.526 19.6003 106.758 20.1283 105.894 20.6563C105.486 20.8963 105.15 21.4003 105.03 21.8563C104.886 22.4083 105.054 23.0083 104.982 23.5843C104.838 24.9042 105.054 25.7922 106.71 25.9122C107.814 25.9842 108.414 26.9202 108.654 28.2162C107.406 28.2162 106.254 28.2882 105.102 28.1922C103.734 28.0722 102.582 26.7762 102.558 25.3122C102.486 22.7923 102.486 20.2963 102.558 17.7763C102.582 16.3843 103.278 15.8323 104.838 15.7363Z" fill="#262626"/>
<path d="M122.885 14.7045C122.885 15.6165 122.885 16.5524 122.885 17.4644C122.885 19.7444 122.909 22.0244 122.885 24.3044C122.885 25.1204 123.054 25.6244 123.989 25.8404C125.117 26.1044 125.837 26.8484 125.909 28.2163C124.877 28.2163 123.893 28.3123 122.91 28.1923C121.518 28.0243 120.39 26.6564 120.39 25.1444C120.366 22.4084 120.342 19.6964 120.39 16.9604C120.414 15.3525 121.158 14.6565 122.885 14.7045Z" fill="#262626"/>
<path d="M65.4781 18.4241C65.4781 21.0881 65.5501 23.7281 65.4301 26.3441C65.3821 27.4961 64.4701 28.0961 63.1981 28.2161C63.1981 25.4081 63.1021 22.6721 63.2461 19.9361C63.2941 18.8801 64.1821 18.2561 65.4781 18.4241Z" fill="#262626"/>
<path d="M64.5899 14.2964C64.9019 14.8004 65.4779 15.3044 65.4539 15.7844C65.4299 16.1924 64.7339 16.5764 64.3259 16.9604C63.9179 16.5284 63.2699 16.1444 63.1739 15.6644C63.1019 15.2804 63.7259 14.7764 64.0619 14.3204C64.2299 14.2964 64.4219 14.2964 64.5899 14.2964Z" fill="#262626"/>
</svg>
