<svg width="126" height="40" viewBox="0 0 126 40" fill="none" xmlns="http://www.w3.org/2000/svg">
<path d="M0.270508 11.8722C0.870502 9.44827 1.90249 7.72028 3.34248 6.2083C6.96645 2.46433 11.5504 0.64035 16.5664 0.160355C27.1023 -0.871636 35.4782 3.08832 41.5261 11.7282C43.3501 14.3442 44.2621 17.3682 44.2861 20.6082C44.2861 21.3522 44.1661 22.0962 43.9501 22.8881C41.5021 13.0002 34.8302 7.40829 25.3743 5.05631C16.0384 2.75233 7.42244 4.02432 0.270508 11.8722Z" fill="#D1D1D1"/>
<path d="M21.9184 19.1202C18.0304 20.5841 14.2624 22.2641 10.3505 23.4161C7.39849 24.2801 4.56651 23.3921 2.21453 21.2801C-0.0654466 19.2162 -0.641441 16.0242 0.750546 13.2882C1.73454 11.2962 3.29452 9.88024 5.28651 8.65625C4.78251 9.83224 4.25452 10.7682 3.94252 11.7762C2.62253 16.0002 5.16651 19.3842 9.58247 19.1202C11.3105 19.0242 12.9904 18.4242 14.6944 17.9682C15.7264 17.7042 16.7344 17.2962 17.7664 16.9842C19.9024 16.3362 20.6464 16.6722 21.9184 19.1202Z" fill="#D1D1D1"/>
<path d="M5.98242 16.9842C6.55842 13.9602 9.55839 11.4642 13.1824 11.1042C17.5263 10.6482 21.1263 12.1362 23.6463 15.6642C25.2783 17.9442 26.5502 20.4881 28.0382 22.9121C28.8542 24.2561 29.7182 25.5761 30.6782 26.8001C32.2622 28.7921 34.1822 30.2801 37.0381 29.9441C35.5982 31.6241 33.5582 32.176 31.8542 30.8561C30.1502 29.5601 28.6142 27.9041 27.3662 26.1281C25.9022 24.0641 24.8703 21.6641 23.5503 19.4802C21.9663 16.8402 19.9503 14.6082 16.6623 14.1042C14.0703 13.6962 11.8384 14.4402 10.1824 16.5522C8.8144 18.3282 7.9984 18.4482 5.98242 16.9842Z" fill="#D1D1D1"/>
<path d="M25.3984 40.0001C25.4944 39.2321 25.5424 38.8001 25.6144 38.3921C26.1664 34.2401 24.1744 31.3362 20.0705 30.3522C17.3105 29.7042 14.5505 29.1282 11.8386 28.3362C9.91857 27.7842 8.33458 26.5842 7.1106 24.4962C9.07858 24.8082 10.7346 24.2562 12.6065 25.1202C14.5505 26.0082 16.8545 26.0322 19.0145 26.4402C20.8625 26.8002 22.7825 26.9202 24.5104 27.5682C27.0784 28.5522 28.5904 30.6162 28.7584 33.4481C28.8784 36.0881 27.6544 38.1041 25.3984 40.0001Z" fill="#D1D1D1"/>
<path d="M25.1582 15.4963C30.4382 14.7763 35.2141 15.5683 39.4141 18.7602C41.4541 20.2962 42.798 22.3602 43.23 24.9042C43.662 27.4002 43.11 29.6801 41.0941 31.3361C39.1021 32.9681 36.8221 32.8961 34.2541 32.2001C35.2141 31.8881 36.0061 31.6961 36.7261 31.3601C40.7821 29.5601 41.3101 24.5442 37.8301 21.1602C35.2621 18.6642 32.0221 17.7042 28.5662 17.8722C26.7182 17.9682 25.9022 17.2002 25.1582 15.4963Z" fill="#D1D1D1"/>
<path d="M81.1739 28.1441C79.4699 27.9761 78.8459 27.3761 78.7739 25.9841C78.7259 24.9041 78.7739 23.8241 78.7499 22.7681C78.7259 21.3281 78.2459 20.7761 77.022 20.7281C75.774 20.7041 75.27 21.2561 75.246 22.6961C75.222 23.8241 75.294 24.9521 75.198 26.0561C75.102 27.4241 74.382 28.0241 72.75 28.1201C72.75 26.2481 72.774 24.3761 72.75 22.4801C72.726 21.1601 72.03 20.5841 70.758 20.7281C69.822 20.8241 69.27 21.2801 69.27 22.2881C69.27 23.4881 69.294 24.7121 69.222 25.9121C69.15 27.2321 68.478 28.0721 66.966 28.1681C66.966 25.7201 66.63 23.2721 67.062 20.9681C67.542 18.3042 70.47 17.6562 72.966 18.5922C73.734 18.8802 74.238 18.9282 75.054 18.6162C78.2939 17.3682 81.2939 19.0242 81.2459 22.3841C81.1499 24.3041 81.1739 26.1761 81.1739 28.1441Z" fill="#D1D1D1"/>
<path d="M61.95 28.1682C60.462 28.1682 59.478 27.6162 59.166 26.3442C58.95 25.4322 58.47 25.2642 57.654 25.2642C55.9741 25.2642 55.2781 24.6642 54.8701 22.8402C55.7341 22.8402 56.574 22.8162 57.39 22.8402C58.182 22.8642 58.446 22.5522 58.278 21.7842C58.038 20.6323 57.942 19.4563 57.606 18.3523C57.462 17.8723 56.862 17.5123 56.454 17.1043C56.0221 17.5363 55.3261 17.8963 55.2301 18.4003C54.7021 20.7523 54.3421 23.1522 53.8861 25.5282C53.5261 27.3042 52.8061 27.9522 51.0781 28.1442C51.0781 27.8802 51.0061 27.6162 51.0541 27.3762C51.6301 24.2082 52.2061 21.0163 52.8061 17.8483C53.2141 15.6883 54.5101 14.5123 56.406 14.5123C58.278 14.4883 59.694 15.7123 60.102 17.7763C60.726 21.1843 61.302 24.5922 61.95 28.1682Z" fill="#D1D1D1"/>
<path d="M85.7819 21.9042C86.7179 21.9042 87.5339 21.9522 88.3259 21.8802C88.6138 21.8562 88.8539 21.5202 89.1178 21.3282C88.8539 21.1362 88.6138 20.8242 88.3259 20.7522C86.5499 20.3682 84.9419 21.4002 84.7739 22.9602C84.6059 24.5441 85.7819 25.6001 87.7019 25.7201C88.6619 25.7921 89.6698 25.9361 90.5338 26.3201C91.0378 26.5361 91.2778 27.3281 91.7818 28.0961C89.6698 28.0961 87.8699 28.3121 86.1419 28.0481C83.6219 27.6401 82.0379 25.1441 82.3259 22.6242C82.6139 20.1522 84.6299 18.3522 87.1739 18.2322C88.7099 18.1602 90.1738 18.2082 91.1338 19.6722C91.8298 20.7522 91.8538 21.8562 91.1338 22.9602C90.3898 24.1121 88.8539 24.7121 87.5819 24.3281C86.5499 24.0401 85.8299 23.3682 85.7819 21.9042Z" fill="#D1D1D1"/>
<path d="M116.574 28.1441C116.574 26.0801 116.55 24.1122 116.598 22.1442C116.622 21.1122 116.214 20.6322 115.158 20.7282C114.534 20.7762 113.886 20.7282 113.286 20.8482C112.038 21.1122 111.27 22.1442 111.342 23.3922C111.414 24.5202 112.278 25.5041 113.454 25.6721C114.246 25.7921 115.062 25.7681 115.83 25.8161C115.974 27.3041 114.798 28.3601 113.214 28.2161C110.91 28.0241 108.846 25.7921 108.798 23.3682C108.726 20.9202 110.622 18.6402 112.974 18.3282C113.022 18.3282 113.07 18.3042 113.118 18.3042C117.126 18.1122 119.43 17.9922 119.07 23.6082C119.022 24.4002 119.094 25.2162 119.022 26.0321C118.902 27.4241 118.254 27.9761 116.574 28.1441Z" fill="#D1D1D1"/>
<path d="M101.214 28.168C99.4617 27.976 98.8137 27.376 98.7657 25.888C98.7177 24.736 98.7657 23.56 98.7177 22.4081C98.6937 21.2321 98.0217 20.7281 96.8937 20.7521C95.8377 20.8001 95.2137 21.2801 95.2137 22.4081C95.2137 23.56 95.2617 24.736 95.1657 25.888C95.0697 27.4 94.3737 28.024 92.8137 28.12C92.8137 25.888 92.6937 23.6321 92.8617 21.4241C93.0057 19.4081 94.7817 18.2321 97.1577 18.2561C99.2937 18.2801 100.902 19.5761 101.166 21.4721C101.238 21.9521 101.214 22.4561 101.214 22.9361C101.214 24.664 101.214 26.368 101.214 28.168Z" fill="#D1D1D1"/>
<path d="M104.838 15.7362C104.958 16.5042 104.814 17.5122 105.27 18.0162C105.654 18.4482 106.662 18.3042 107.478 18.4242C107.526 19.6002 106.758 20.1282 105.894 20.6562C105.486 20.8962 105.15 21.4002 105.03 21.8562C104.886 22.4081 105.054 23.0081 104.982 23.5841C104.838 24.9041 105.054 25.7921 106.71 25.9121C107.814 25.9841 108.414 26.9201 108.654 28.2161C107.406 28.2161 106.254 28.2881 105.102 28.1921C103.734 28.0721 102.582 26.7761 102.558 25.3121C102.486 22.7921 102.486 20.2962 102.558 17.7762C102.582 16.3842 103.278 15.8322 104.838 15.7362Z" fill="#D1D1D1"/>
<path d="M122.885 14.7042C122.885 15.6162 122.885 16.5522 122.885 17.4642C122.885 19.7442 122.909 22.0242 122.885 24.3041C122.885 25.1201 123.054 25.6241 123.989 25.8401C125.117 26.1041 125.837 26.8481 125.909 28.2161C124.877 28.2161 123.893 28.3121 122.91 28.1921C121.518 28.0241 120.39 26.6561 120.39 25.1441C120.366 22.4082 120.342 19.6962 120.39 16.9602C120.414 15.3522 121.158 14.6562 122.885 14.7042Z" fill="#D1D1D1"/>
<path d="M65.4781 18.4241C65.4781 21.0881 65.5501 23.7281 65.4301 26.3441C65.3821 27.4961 64.4701 28.0961 63.1981 28.2161C63.1981 25.4081 63.1021 22.6721 63.2461 19.9361C63.2941 18.8801 64.1821 18.2561 65.4781 18.4241Z" fill="#D1D1D1"/>
<path d="M64.5899 14.2963C64.9019 14.8003 65.4779 15.3043 65.4539 15.7843C65.4299 16.1923 64.7339 16.5762 64.3259 16.9602C63.9179 16.5282 63.2699 16.1443 63.1739 15.6643C63.1019 15.2803 63.7259 14.7763 64.0619 14.3203C64.2299 14.2963 64.4219 14.2963 64.5899 14.2963Z" fill="#D1D1D1"/>
</svg>
