<svg width="25" height="24" viewBox="0 0 25 24" fill="none" xmlns="http://www.w3.org/2000/svg">
<path d="M9.90942 0.416959C10.0558 0.594878 10.1455 0.812617 10.1669 1.04204C10.1883 1.27147 10.1404 1.50204 10.0294 1.70396C9.16221 3.29617 8.70933 5.0809 8.71242 6.89396C8.71242 12.9255 13.6294 17.8095 19.6894 17.8095C20.4799 17.8095 21.2494 17.727 21.9889 17.5695C22.2156 17.5204 22.4517 17.5391 22.6678 17.6234C22.8839 17.7077 23.0704 17.8538 23.2039 18.0435C23.3449 18.2406 23.4168 18.4789 23.4084 18.7211C23.4 18.9634 23.3117 19.196 23.1574 19.383C21.981 20.8281 20.4968 21.9925 18.8132 22.7912C17.1296 23.59 15.2889 24.0029 13.4254 24C6.51042 24 0.909424 18.429 0.909424 11.565C0.909424 6.39896 4.08042 1.96796 8.59542 0.0899595C8.82033 -0.00509275 9.07001 -0.0246018 9.30695 0.034363C9.54389 0.0933277 9.7553 0.227582 9.90942 0.416959Z" fill="#262626"/>
<path d="M17.1004 4.7222C17.1219 4.65724 17.1633 4.60071 17.2188 4.56064C17.2743 4.52058 17.341 4.49901 17.4094 4.49901C17.4778 4.49901 17.5445 4.52058 17.6 4.56064C17.6554 4.60071 17.6969 4.65724 17.7184 4.7222L18.2989 6.4652C18.5584 7.2422 19.1674 7.8512 19.9444 8.1107L21.6874 8.6912C21.7523 8.71271 21.8089 8.75414 21.8489 8.80961C21.889 8.86508 21.9106 8.93177 21.9106 9.0002C21.9106 9.06862 21.889 9.13531 21.8489 9.19078C21.8089 9.24625 21.7523 9.28769 21.6874 9.3092L19.9444 9.8897C19.5612 10.0174 19.213 10.2325 18.9273 10.5182C18.6417 10.8038 18.4266 11.152 18.2989 11.5352L17.7184 13.2782C17.6969 13.3432 17.6554 13.3997 17.6 13.4397C17.5445 13.4798 17.4778 13.5014 17.4094 13.5014C17.341 13.5014 17.2743 13.4798 17.2188 13.4397C17.1633 13.3997 17.1219 13.3432 17.1004 13.2782L16.5199 11.5352C16.3922 11.152 16.177 10.8038 15.8914 10.5182C15.6058 10.2325 15.2576 10.0174 14.8744 9.8897L13.1314 9.3092C13.0664 9.28769 13.0099 9.24625 12.9698 9.19078C12.9298 9.13531 12.9082 9.06862 12.9082 9.0002C12.9082 8.93177 12.9298 8.86508 12.9698 8.80961C13.0099 8.75414 13.0664 8.71271 13.1314 8.6912L14.8744 8.1107C15.2576 7.98302 15.6058 7.76785 15.8914 7.48223C16.177 7.19662 16.3922 6.84841 16.5199 6.4652L17.1004 4.7222ZM21.7039 0.148695C21.7187 0.105985 21.7464 0.0689492 21.7833 0.0427378C21.8201 0.0165263 21.8642 0.00244141 21.9094 0.00244141C21.9546 0.00244141 21.9987 0.0165263 22.0355 0.0427378C22.0723 0.0689492 22.1001 0.105985 22.1149 0.148695L22.5019 1.3097C22.6744 1.8287 23.0809 2.2352 23.5999 2.4077L24.7609 2.7947C24.8036 2.8095 24.8406 2.83725 24.8668 2.87408C24.8931 2.91091 24.9071 2.95499 24.9071 3.0002C24.9071 3.0454 24.8931 3.08948 24.8668 3.12631C24.8406 3.16314 24.8036 3.19089 24.7609 3.2057L23.5999 3.5927C23.3441 3.67778 23.1117 3.82132 22.9211 4.01192C22.7305 4.20252 22.587 4.43493 22.5019 4.6907L22.1149 5.8517C22.1001 5.89441 22.0723 5.93144 22.0355 5.95765C21.9987 5.98386 21.9546 5.99795 21.9094 5.99795C21.8642 5.99795 21.8201 5.98386 21.7833 5.95765C21.7464 5.93144 21.7187 5.89441 21.7039 5.8517L21.3169 4.6907C21.2318 4.43493 21.0883 4.20252 20.8977 4.01192C20.7071 3.82132 20.4747 3.67778 20.2189 3.5927L19.0579 3.2057C19.0152 3.19089 18.9781 3.16314 18.9519 3.12631C18.9257 3.08948 18.9116 3.0454 18.9116 3.0002C18.9116 2.95499 18.9257 2.91091 18.9519 2.87408C18.9781 2.83725 19.0152 2.8095 19.0579 2.7947L20.2189 2.4077C20.7379 2.2352 21.1444 1.8287 21.3169 1.3097L21.7039 0.150195V0.148695Z" fill="#262626"/>
</svg>
