<svg width="25" height="24" viewBox="0 0 25 24" fill="none" xmlns="http://www.w3.org/2000/svg">
<path d="M12.9094 18C14.5007 18 16.0268 17.3679 17.1521 16.2426C18.2773 15.1174 18.9094 13.5913 18.9094 12C18.9094 10.4087 18.2773 8.88258 17.1521 7.75736C16.0268 6.63214 14.5007 6 12.9094 6C11.3181 6 9.792 6.63214 8.66678 7.75736C7.54156 8.88258 6.90942 10.4087 6.90942 12C6.90942 13.5913 7.54156 15.1174 8.66678 16.2426C9.792 17.3679 11.3181 18 12.9094 18ZM12.9094 0C13.1083 0 13.2991 0.0790176 13.4398 0.21967C13.5804 0.360322 13.6594 0.551088 13.6594 0.75V3.75C13.6594 3.94891 13.5804 4.13968 13.4398 4.28033C13.2991 4.42098 13.1083 4.5 12.9094 4.5C12.7105 4.5 12.5197 4.42098 12.3791 4.28033C12.2384 4.13968 12.1594 3.94891 12.1594 3.75V0.75C12.1594 0.551088 12.2384 0.360322 12.3791 0.21967C12.5197 0.0790176 12.7105 0 12.9094 0V0ZM12.9094 19.5C13.1083 19.5 13.2991 19.579 13.4398 19.7197C13.5804 19.8603 13.6594 20.0511 13.6594 20.25V23.25C13.6594 23.4489 13.5804 23.6397 13.4398 23.7803C13.2991 23.921 13.1083 24 12.9094 24C12.7105 24 12.5197 23.921 12.3791 23.7803C12.2384 23.6397 12.1594 23.4489 12.1594 23.25V20.25C12.1594 20.0511 12.2384 19.8603 12.3791 19.7197C12.5197 19.579 12.7105 19.5 12.9094 19.5ZM24.9094 12C24.9094 12.1989 24.8304 12.3897 24.6898 12.5303C24.5491 12.671 24.3583 12.75 24.1594 12.75H21.1594C20.9605 12.75 20.7697 12.671 20.6291 12.5303C20.4884 12.3897 20.4094 12.1989 20.4094 12C20.4094 11.8011 20.4884 11.6103 20.6291 11.4697C20.7697 11.329 20.9605 11.25 21.1594 11.25H24.1594C24.3583 11.25 24.5491 11.329 24.6898 11.4697C24.8304 11.6103 24.9094 11.8011 24.9094 12ZM5.40942 12C5.40942 12.1989 5.33041 12.3897 5.18975 12.5303C5.0491 12.671 4.85834 12.75 4.65942 12.75H1.65942C1.46051 12.75 1.26975 12.671 1.12909 12.5303C0.988441 12.3897 0.909424 12.1989 0.909424 12C0.909424 11.8011 0.988441 11.6103 1.12909 11.4697C1.26975 11.329 1.46051 11.25 1.65942 11.25H4.65942C4.85834 11.25 5.0491 11.329 5.18975 11.4697C5.33041 11.6103 5.40942 11.8011 5.40942 12ZM21.3949 3.5145C21.5355 3.65515 21.6145 3.84588 21.6145 4.04475C21.6145 4.24362 21.5355 4.43435 21.3949 4.575L19.2739 6.6975C19.2042 6.76713 19.1214 6.82235 19.0304 6.86C18.9393 6.89765 18.8417 6.91699 18.7431 6.91692C18.5441 6.91678 18.3533 6.83758 18.2127 6.69675C18.143 6.62702 18.0878 6.54425 18.0502 6.45318C18.0125 6.36211 17.9932 6.26452 17.9933 6.16597C17.9934 5.96695 18.0726 5.77613 18.2134 5.6355L20.3344 3.5145C20.4751 3.3739 20.6658 3.29491 20.8647 3.29491C21.0635 3.29491 21.2543 3.3739 21.3949 3.5145ZM7.60542 17.304C7.74603 17.4446 7.82501 17.6354 7.82501 17.8342C7.82501 18.0331 7.74603 18.2239 7.60542 18.3645L5.48442 20.4855C5.34297 20.6221 5.15352 20.6977 4.95687 20.696C4.76023 20.6943 4.57212 20.6154 4.43306 20.4764C4.294 20.3373 4.21513 20.1492 4.21342 19.9526C4.21171 19.7559 4.28731 19.5665 4.42392 19.425L6.54492 17.304C6.68557 17.1634 6.8763 17.0844 7.07517 17.0844C7.27405 17.0844 7.46478 17.1634 7.60542 17.304ZM21.3949 20.4855C21.2543 20.6261 21.0635 20.7051 20.8647 20.7051C20.6658 20.7051 20.4751 20.6261 20.3344 20.4855L18.2134 18.3645C18.0768 18.223 18.0012 18.0336 18.0029 17.8369C18.0046 17.6403 18.0835 17.4522 18.2226 17.3131C18.3616 17.1741 18.5497 17.0952 18.7464 17.0935C18.943 17.0918 19.1325 17.1674 19.2739 17.304L21.3949 19.425C21.5355 19.5656 21.6145 19.7564 21.6145 19.9552C21.6145 20.1541 21.5355 20.3449 21.3949 20.4855ZM7.60542 6.6975C7.46478 6.8381 7.27405 6.91709 7.07517 6.91709C6.8763 6.91709 6.68557 6.8381 6.54492 6.6975L4.42392 4.575C4.35229 4.50582 4.29515 4.42306 4.25585 4.33155C4.21654 4.24005 4.19585 4.14164 4.19499 4.04205C4.19412 3.94247 4.2131 3.84371 4.25081 3.75153C4.28852 3.65936 4.34421 3.57562 4.41463 3.5052C4.48505 3.43478 4.56879 3.37909 4.66096 3.34138C4.75313 3.30367 4.85189 3.2847 4.95147 3.28556C5.05106 3.28643 5.14947 3.30712 5.24098 3.34642C5.33248 3.38573 5.41524 3.44287 5.48442 3.5145L7.60542 5.6355C7.67527 5.70517 7.73068 5.78793 7.76849 5.87905C7.8063 5.97017 7.82576 6.06785 7.82576 6.1665C7.82576 6.26515 7.8063 6.36283 7.76849 6.45395C7.73068 6.54507 7.67527 6.62783 7.60542 6.6975Z" fill="#D1D1D1"/>
</svg>
