<svg width="32" height="33" viewBox="0 0 32 33" fill="none" xmlns="http://www.w3.org/2000/svg">
<path d="M29.7143 0.952637H2.27857C1.02143 0.952637 0 1.98835 0 3.25978V30.6455C0 31.9169 1.02143 32.9526 2.27857 32.9526H29.7143C30.9714 32.9526 32 31.9169 32 30.6455V3.25978C32 1.98835 30.9714 0.952637 29.7143 0.952637ZM9.67143 28.3812H4.92857V13.1098H9.67857V28.3812H9.67143ZM7.3 11.0241C5.77857 11.0241 4.55 9.78835 4.55 8.27407C4.55 6.75978 5.77857 5.52407 7.3 5.52407C8.81429 5.52407 10.05 6.75978 10.05 8.27407C10.05 9.79549 8.82143 11.0241 7.3 11.0241ZM27.45 28.3812H22.7071V20.9526C22.7071 19.1812 22.6714 16.9026 20.2429 16.9026C17.7714 16.9026 17.3929 18.8312 17.3929 20.8241V28.3812H12.65V13.1098H17.2V15.1955H17.2643C17.9 13.9955 19.45 12.7312 21.7571 12.7312C26.5571 12.7312 27.45 15.8955 27.45 20.0098V28.3812Z" fill="#D1D1D1"/>
</svg>
