<svg width="32" height="33" viewBox="0 0 32 33" fill="none" xmlns="http://www.w3.org/2000/svg">
<path d="M16 3.83558C20.2722 3.83558 20.7782 3.85184 22.4653 3.92881C24.0253 4.00001 24.8725 4.26066 25.4363 4.47972C26.1831 4.76997 26.7162 5.11674 27.276 5.6766C27.8359 6.23646 28.1827 6.76952 28.4729 7.51629C28.692 8.08015 28.9526 8.92734 29.0238 10.4873C29.1008 12.1745 29.1171 12.6805 29.1171 16.9527C29.1171 21.2249 29.1008 21.7309 29.0238 23.418C28.9526 24.978 28.692 25.8252 28.4729 26.389C28.1827 27.1358 27.8359 27.6689 27.276 28.2287C26.7162 28.7886 26.1831 29.1354 25.4363 29.4256C24.8725 29.6447 24.0253 29.9053 22.4653 29.9765C20.7784 30.0535 20.2724 30.0698 16 30.0698C11.7275 30.0698 11.2215 30.0535 9.53463 29.9765C7.97464 29.9053 7.12745 29.6447 6.56366 29.4256C5.81682 29.1354 5.28376 28.7886 4.7239 28.2287C4.16404 27.6689 3.81727 27.1358 3.52708 26.389C3.30796 25.8252 3.04731 24.978 2.97611 23.4181C2.89914 21.7309 2.88288 21.2249 2.88288 16.9527C2.88288 12.6805 2.89914 12.1745 2.97611 10.4873C3.04731 8.92734 3.30796 8.08015 3.52708 7.51629C3.81727 6.76952 4.16404 6.23646 4.7239 5.6766C5.28376 5.11674 5.81682 4.76997 6.56366 4.47972C7.12745 4.26066 7.97464 4.00001 9.53456 3.92881C11.2218 3.85184 11.7278 3.83558 16 3.83558ZM16 0.952637C11.6546 0.952637 11.1098 0.971055 9.40322 1.04892C7.70014 1.12666 6.53711 1.39709 5.51933 1.79265C4.46719 2.20154 3.57491 2.74863 2.68542 3.63812C1.79593 4.52761 1.24884 5.41989 0.839948 6.47203C0.444394 7.48981 0.17396 8.65284 0.0962208 10.3559C0.018355 12.0624 0 12.6073 0 16.9527C0 21.298 0.018355 21.8429 0.0962208 23.5494C0.17396 25.2525 0.444394 26.4155 0.839948 27.4333C1.24884 28.4854 1.79593 29.3777 2.68542 30.2672C3.57491 31.1567 4.46719 31.7038 5.51933 32.1127C6.53711 32.5082 7.70014 32.7787 9.40322 32.8564C11.1098 32.9343 11.6546 32.9526 16 32.9526C20.3453 32.9526 20.8902 32.9343 22.5967 32.8564C24.2998 32.7787 25.4628 32.5082 26.4806 32.1127C27.5327 31.7038 28.425 31.1567 29.3145 30.2672C30.204 29.3777 30.7511 28.4854 31.16 27.4333C31.5555 26.4155 31.826 25.2525 31.9037 23.5494C31.9816 21.8429 32 21.298 32 16.9527C32 12.6073 31.9816 12.0624 31.9037 10.3559C31.826 8.65284 31.5555 7.48981 31.16 6.47203C30.7511 5.41989 30.204 4.52761 29.3145 3.63812C28.425 2.74863 27.5327 2.20154 26.4806 1.79265C25.4628 1.39709 24.2998 1.12666 22.5967 1.04892C20.8902 0.971055 20.3453 0.952637 16 0.952637ZM16 8.73643C11.4623 8.73643 7.78373 12.415 7.78373 16.9527C7.78373 21.4904 11.4623 25.1689 16 25.1689C20.5377 25.1689 24.2162 21.4904 24.2162 16.9527C24.2162 12.415 20.5377 8.73643 16 8.73643ZM16 22.286C13.0545 22.286 10.6666 19.8982 10.6666 16.9527C10.6666 14.0072 13.0545 11.6193 16 11.6193C18.9455 11.6193 21.3333 14.0072 21.3333 16.9527C21.3333 19.8982 18.9455 22.286 16 22.286ZM26.4608 8.41182C26.4608 9.47221 25.6012 10.3319 24.5408 10.3319C23.4804 10.3319 22.6208 9.47221 22.6208 8.41182C22.6208 7.35142 23.4804 6.49184 24.5408 6.49184C25.6012 6.49184 26.4608 7.35142 26.4608 8.41182Z" fill="#D1D1D1"/>
</svg>
