<svg width="46" height="33" viewBox="0 0 46 33" fill="none" xmlns="http://www.w3.org/2000/svg">
<path d="M44.5602 5.95955C44.0368 3.98872 42.4946 2.43655 40.5365 1.9098C36.9873 0.952637 22.7556 0.952637 22.7556 0.952637C22.7556 0.952637 8.52392 0.952637 4.97467 1.9098C3.01658 2.43664 1.47442 3.98872 0.951 5.95955C0 9.5318 0 16.985 0 16.985C0 16.985 0 24.4381 0.951 28.0104C1.47442 29.9812 3.01658 31.4687 4.97467 31.9955C8.52392 32.9526 22.7556 32.9526 22.7556 32.9526C22.7556 32.9526 36.9873 32.9526 40.5365 31.9955C42.4946 31.4687 44.0368 29.9812 44.5602 28.0104C45.5112 24.4381 45.5112 16.985 45.5112 16.985C45.5112 16.985 45.5112 9.5318 44.5602 5.95955ZM18.101 23.7519V10.2181L29.9959 16.9851L18.101 23.7519Z" fill="#D1D1D1"/>
</svg>
