<svg width="50" height="50" viewBox="0 0 50 50" fill="none" xmlns="http://www.w3.org/2000/svg">
<path d="M20.3334 31.9998L13.1578 39.2651C12.1569 40.2785 11.6565 40.7852 11.2263 40.821C10.8531 40.852 10.4877 40.702 10.244 40.4177C9.96304 40.09 9.96304 39.3778 9.96304 37.9534V34.3136C9.96304 33.0357 8.91659 32.1111 7.65222 31.9259V31.9259C4.59215 31.4777 2.18889 29.0744 1.74066 26.0144C1.66675 25.5098 1.66675 24.9077 1.66675 23.7035V12.8665C1.66675 8.94614 1.66675 6.98595 2.4297 5.48857C3.10082 4.17144 4.17168 3.10057 5.48881 2.42946C6.9862 1.6665 8.94638 1.6665 12.8667 1.6665H30.1334C34.0538 1.6665 36.014 1.6665 37.5113 2.42946C38.8285 3.10057 39.8993 4.17144 40.5705 5.48857C41.3334 6.98595 41.3334 8.94614 41.3334 12.8665V22.6665M41.3334 48.3332L36.2551 44.8026C35.5413 44.3063 35.1843 44.0581 34.7959 43.8822C34.4511 43.726 34.0886 43.6124 33.7164 43.5438C33.297 43.4665 32.8623 43.4665 31.9929 43.4665H27.8001C25.1865 43.4665 23.8797 43.4665 22.8815 42.9579C22.0034 42.5105 21.2895 41.7965 20.8421 40.9185C20.3334 39.9202 20.3334 38.6134 20.3334 35.9998V30.1332C20.3334 27.5196 20.3334 26.2128 20.8421 25.2145C21.2895 24.3365 22.0034 23.6225 22.8815 23.1751C23.8797 22.6665 25.1865 22.6665 27.8001 22.6665H40.8667C43.4803 22.6665 44.7871 22.6665 45.7854 23.1751C46.6635 23.6225 47.3774 24.3365 47.8248 25.2145C48.3334 26.2128 48.3334 27.5196 48.3334 30.1332V36.4665C48.3334 38.6409 48.3334 39.7281 47.9782 40.5857C47.5045 41.7292 46.5961 42.6376 45.4526 43.1113C44.595 43.4665 43.5078 43.4665 41.3334 43.4665V48.3332Z" stroke="#262626" stroke-width="3" stroke-linecap="round" stroke-linejoin="round"/>
</svg>
