<svg width="50" height="50" viewBox="0 0 50 50" fill="none" xmlns="http://www.w3.org/2000/svg">
<path d="M20.3334 32L13.1578 39.2653C12.1569 40.2787 11.6565 40.7854 11.2263 40.8212C10.8531 40.8522 10.4877 40.7021 10.244 40.4178C9.96304 40.0902 9.96304 39.378 9.96304 37.9536V34.3138C9.96304 33.0359 8.91659 32.1113 7.65222 31.9261V31.9261C4.59215 31.4779 2.18889 29.0746 1.74066 26.0145C1.66675 25.51 1.66675 24.9079 1.66675 23.7037V12.8667C1.66675 8.94632 1.66675 6.98614 2.4297 5.48875C3.10082 4.17162 4.17168 3.10075 5.48881 2.42964C6.9862 1.66669 8.94638 1.66669 12.8667 1.66669H30.1334C34.0538 1.66669 36.014 1.66669 37.5113 2.42964C38.8285 3.10075 39.8993 4.17162 40.5705 5.48875C41.3334 6.98614 41.3334 8.94632 41.3334 12.8667V22.6667M41.3334 48.3334L36.2551 44.8027C35.5413 44.3064 35.1843 44.0583 34.7959 43.8824C34.4511 43.7262 34.0886 43.6126 33.7164 43.544C33.297 43.4667 32.8623 43.4667 31.9929 43.4667H27.8001C25.1865 43.4667 23.8797 43.4667 22.8815 42.958C22.0034 42.5106 21.2895 41.7967 20.8421 40.9186C20.3334 39.9204 20.3334 38.6136 20.3334 36V30.1334C20.3334 27.5198 20.3334 26.213 20.8421 25.2147C21.2895 24.3366 22.0034 23.6227 22.8815 23.1753C23.8797 22.6667 25.1865 22.6667 27.8001 22.6667H40.8667C43.4803 22.6667 44.7871 22.6667 45.7854 23.1753C46.6635 23.6227 47.3774 24.3366 47.8248 25.2147C48.3334 26.213 48.3334 27.5198 48.3334 30.1334V36.4667C48.3334 38.6411 48.3334 39.7283 47.9782 40.5859C47.5045 41.7293 46.5961 42.6378 45.4526 43.1115C44.595 43.4667 43.5078 43.4667 41.3334 43.4667V48.3334Z" stroke="#D1D1D1" stroke-width="3" stroke-linecap="round" stroke-linejoin="round"/>
</svg>
