<svg width="46" height="46" viewBox="0 0 46 46" fill="none" xmlns="http://www.w3.org/2000/svg">
<path d="M2 13.2C2 9.27963 2 7.31945 2.76295 5.82207C3.43407 4.50493 4.50493 3.43407 5.82207 2.76295C7.31945 2 9.27963 2 13.2 2H32.8C36.7204 2 38.6805 2 40.1779 2.76295C41.4951 3.43407 42.5659 4.50493 43.237 5.82207C44 7.31945 44 9.27963 44 13.2V32.8C44 36.7204 44 38.6805 43.237 40.1779C42.5659 41.4951 41.4951 42.5659 40.1779 43.237C38.6805 44 36.7204 44 32.8 44H13.2C9.27963 44 7.31945 44 5.82207 43.237C4.50493 42.5659 3.43407 41.4951 2.76295 40.1779C2 38.6805 2 36.7204 2 32.8V13.2Z" stroke="#262626" stroke-width="3" stroke-linecap="round" stroke-linejoin="round"/>
<path d="M27.2778 12.0333C27.2778 11.3799 27.2778 11.0532 27.1506 10.8037C27.0388 10.5842 26.8603 10.4057 26.6408 10.2938C26.3912 10.1667 26.0645 10.1667 25.4111 10.1667H20.5889C19.9355 10.1667 19.6088 10.1667 19.3592 10.2938C19.1397 10.4057 18.9612 10.5842 18.8494 10.8037C18.7222 11.0532 18.7222 11.3799 18.7222 12.0333V16.8556C18.7222 17.5089 18.7222 17.8356 18.5951 18.0852C18.4832 18.3047 18.3047 18.4832 18.0852 18.5951C17.8356 18.7222 17.5089 18.7222 16.8556 18.7222H12.0333C11.3799 18.7222 11.0532 18.7222 10.8037 18.8494C10.5842 18.9612 10.4057 19.1397 10.2938 19.3592C10.1667 19.6088 10.1667 19.9355 10.1667 20.5889V25.4111C10.1667 26.0645 10.1667 26.3912 10.2938 26.6408C10.4057 26.8603 10.5842 27.0388 10.8037 27.1506C11.0532 27.2778 11.3799 27.2778 12.0333 27.2778H16.8556C17.5089 27.2778 17.8356 27.2778 18.0852 27.4049C18.3047 27.5168 18.4832 27.6953 18.5951 27.9148C18.7222 28.1644 18.7222 28.491 18.7222 29.1444V33.9667C18.7222 34.6201 18.7222 34.9468 18.8494 35.1963C18.9612 35.4158 19.1397 35.5943 19.3592 35.7062C19.6088 35.8333 19.9355 35.8333 20.5889 35.8333H25.4111C26.0645 35.8333 26.3912 35.8333 26.6408 35.7062C26.8603 35.5943 27.0388 35.4158 27.1506 35.1963C27.2778 34.9468 27.2778 34.6201 27.2778 33.9667V29.1444C27.2778 28.491 27.2778 28.1644 27.4049 27.9148C27.5168 27.6953 27.6953 27.5168 27.9148 27.4049C28.1644 27.2778 28.491 27.2778 29.1444 27.2778H33.9667C34.6201 27.2778 34.9468 27.2778 35.1963 27.1506C35.4158 27.0388 35.5943 26.8603 35.7062 26.6408C35.8333 26.3912 35.8333 26.0645 35.8333 25.4111V20.5889C35.8333 19.9355 35.8333 19.6088 35.7062 19.3592C35.5943 19.1397 35.4158 18.9612 35.1963 18.8494C34.9468 18.7222 34.6201 18.7222 33.9667 18.7222H29.1444C28.491 18.7222 28.1644 18.7222 27.9148 18.5951C27.6953 18.4832 27.5168 18.3047 27.4049 18.0852C27.2778 17.8356 27.2778 17.5089 27.2778 16.8556V12.0333Z" stroke="#262626" stroke-width="3" stroke-linecap="round" stroke-linejoin="round"/>
</svg>
