<svg width="304" height="64" viewBox="0 0 304 64" fill="none" xmlns="http://www.w3.org/2000/svg">
<g opacity="0.5">
<path fill-rule="evenodd" clip-rule="evenodd" d="M266.346 0.724823H303.496V64H266.346V0.724823ZM0.914673 0.580203H10.3478C12.6703 0.580203 14.2663 0.724834 15.4267 1.0158C16.5871 1.44966 17.6046 2.17621 18.3295 3.33662C19.056 4.64338 19.4916 6.09475 19.4916 7.83537C19.4916 10.8827 18.1848 12.9143 15.4284 13.7855C18.6204 14.9476 20.2181 17.2685 20.2181 20.6068C20.2181 22.4938 19.7826 23.9451 18.9114 25.2502C18.0419 26.4123 17.0244 27.2817 15.7194 27.7173C14.5573 28.1529 12.6703 28.2975 10.3495 28.2975H0.914673V0.580203ZM6.8648 11.7556H8.75176C10.7833 11.7556 11.9438 11.4664 12.524 10.7398C12.9595 10.0133 13.2488 9.14212 13.2488 8.27267C13.2488 7.4015 12.9595 6.67668 12.524 5.95013C11.9438 5.36992 10.9262 5.07895 9.18562 5.07895H6.8648V11.7556ZM6.8648 23.5095H9.76755C12.6703 23.5095 13.9753 22.3491 13.9753 19.882C13.9753 18.5752 13.6844 17.5594 12.9595 17.1238C12.233 16.5436 11.2172 16.2544 9.76755 16.2544H6.8648V23.5095ZM24.2796 0.580203H41.2588V5.22531H30.3743V11.7556H38.7916V16.5436H30.3743V23.3649H41.2588V28.2992H24.2796V0.580203ZM44.1615 0.580203H52.8698C54.6104 0.580203 55.9172 0.580202 56.7866 0.724823C57.6578 0.869444 58.529 1.30503 59.5448 2.03158C60.4582 2.78605 61.2006 3.72624 61.7227 4.78971C62.1583 6.09474 62.4475 7.4015 62.4475 8.85288C62.4475 12.3358 61.1407 14.803 58.529 16.108L63.6079 28.2992H57.0776L53.3054 17.2702H50.258V28.2992H44.1633L44.1615 0.580203ZM50.2563 5.07895V12.7697H53.0144C55.337 12.7697 56.4974 11.4647 56.4974 8.85115C56.4974 7.83536 56.3528 7.11054 55.9172 6.52861C55.6279 5.9484 55.1906 5.51283 54.755 5.3682C54.3195 5.07896 53.5946 5.07895 52.7235 5.07895H50.2563ZM66.7999 0.580203H72.8964V12.0449L79.5713 0.580203H85.8124L78.8465 10.7398L86.3926 28.2992H80.1516L75.2172 15.5278L72.8964 18.8662V28.2992H66.7999V0.580203ZM105.693 6.53033L100.758 8.41729C100.034 6.24109 98.7268 5.08067 96.8398 5.08067C95.824 5.08067 95.2438 5.2253 94.6636 5.80551C94.0834 6.24109 93.937 6.96592 93.937 7.54785C93.937 8.4173 94.228 8.99923 94.8082 9.43481C95.3884 10.015 96.6952 10.5952 98.7268 11.3218C100.467 12.0466 101.919 12.6285 102.936 13.3533C103.952 13.9335 104.677 14.8047 105.403 15.9669C105.984 17.1273 106.275 18.434 106.275 19.8854C106.275 22.4972 105.403 24.6751 103.661 26.2711C101.92 28.0117 99.4533 28.7383 96.4059 28.7383C91.4716 28.7383 88.2796 26.2711 86.8282 21.1922L92.1981 19.5962C92.7783 22.3543 94.3743 23.8039 96.6969 23.8039C97.7127 23.8039 98.5838 23.5147 99.1641 22.9328C99.8889 22.4972 100.18 21.7724 100.18 20.7566C100.18 20.1764 99.8889 19.4515 99.4533 19.016C99.0194 18.4357 98.0019 17.8538 96.2613 17.2736C94.6256 16.6927 93.0261 16.0143 91.4716 15.242C90.4558 14.5172 89.5846 13.646 89.0044 12.4839C88.2796 11.3235 87.9886 10.0167 87.9886 8.56536C87.9886 6.09819 88.7152 4.0666 90.3112 2.47061C91.9072 0.872888 94.0834 0.00344147 96.6952 0.00344147C101.485 -1.89166e-06 104.532 2.1762 105.693 6.53033ZM110.047 0.580203H116.143V11.7556H122.818V0.580203H128.913V28.2992H122.818V16.9792H116.143V28.2992H110.047V0.580203ZM134.137 0.580203H140.233V28.2992H134.137V0.580203ZM145.457 0.580203H154.163C155.905 0.580203 157.212 0.580202 158.08 0.724823C159.097 0.913883 160.048 1.36421 160.838 2.03158C161.709 2.75641 162.436 3.62758 163.018 4.78971C163.596 6.09474 163.744 7.4015 163.744 8.85288C163.744 12.3358 162.436 14.803 159.824 16.108L165.049 28.2992H158.374L154.602 17.2702H151.553V28.2992H145.458L145.457 0.580203ZM151.553 5.07895V12.7697H154.309C156.634 12.7697 157.792 11.4647 157.792 8.85115C157.792 7.83536 157.648 7.11054 157.359 6.52861C156.921 5.9484 156.632 5.51283 156.05 5.3682C155.616 5.07896 154.89 5.07895 154.018 5.07895H151.553ZM168.243 0.580203H185.078V5.22531H174.336V11.7556H182.609V16.5436H174.336V23.3649H185.078V28.2992H168.243V0.580203ZM195.814 0.580203H212.213V5.22531H201.91V12.4805H209.894V17.2702H201.91V28.2992H195.814V0.580203ZM233.691 14.3674C233.691 23.9451 230.354 28.7348 223.681 28.7348C220.343 28.7348 217.874 27.5727 216.132 25.1073C214.393 22.6401 213.666 19.1571 213.666 14.3674C213.666 4.78972 217.003 0 223.679 0C226.871 0 229.483 1.30504 231.225 3.62758C232.823 6.09475 233.691 9.57771 233.691 14.3674ZM227.305 14.3674C227.305 10.5935 227.016 8.12633 226.438 6.96591C225.856 5.65916 224.984 5.07895 223.679 5.07895C222.371 5.07895 221.5 5.65916 220.921 6.96591C220.339 8.12633 220.05 10.5935 220.05 14.3674C220.05 18.1396 220.339 20.6085 220.921 21.9135C221.5 23.2203 222.371 23.8005 223.679 23.8005C224.84 23.8005 225.856 23.2203 226.438 21.9135C227.016 20.7531 227.305 18.1396 227.305 14.3674ZM237.9 0.580203H246.755C248.349 0.580203 249.658 0.580202 250.527 0.724823C251.543 0.869444 252.414 1.30503 253.285 2.03158C254.301 2.75641 255.028 3.62758 255.462 4.78971C256.042 6.06537 256.339 7.45149 256.333 8.85288C256.333 12.3358 255.028 14.803 252.416 16.108L257.493 28.2992H250.818L247.191 17.2702H244.143V28.2992H237.902V0.580203H237.9ZM244.142 5.07895V12.7697H246.755C249.076 12.7697 250.379 11.4647 250.379 8.85115C250.379 7.83536 250.09 7.11054 249.801 6.52861C249.511 5.9484 249.074 5.51283 248.64 5.3682C248.058 5.07896 247.476 5.07895 246.461 5.07895H244.142Z" fill="#D1D1D1"/>
<path fill-rule="evenodd" clip-rule="evenodd" d="M0.914673 36.2812H9.91217L13.8307 53.4051L18.1848 36.2812H26.8914V64.0003H21.2322V40.7817L15.5731 64.0003H11.0726L5.84901 40.7817V64.0003H0.914673V36.2812ZM32.115 36.2812H48.9513V41.0693H38.2114V47.455H46.6287V52.2447H38.2114V59.0677H48.9513V64.0003H32.115V36.2812ZM51.7077 36.2812H58.529L65.6395 53.5514V36.2812H70.4275V64.0003H64.9147L56.4974 43.972V64.0003H51.7077V36.2812ZM72.1698 36.2812H89.5846V41.3585H83.9255V64.0003H77.6844V41.3585H72.1698V36.2812ZM95.9703 36.2812H102.211L110.049 64.0003H103.809L102.358 58.3411H94.667L93.3603 64.0003H87.7011L95.9703 36.2812ZM101.34 53.5514L98.5821 42.2297L95.824 53.5514H101.34ZM112.369 36.2812H118.464V58.9196H127.462V64.0003H112.369V36.2812ZM137.766 36.2812H144.007V47.455H150.682V36.2812H156.777V64.0003H150.682V52.682H144.007V64.0003H137.766V36.2812ZM162.002 36.2812H178.837V41.0693H168.095V47.455H176.368V52.2447H168.095V59.0677H178.837V64.0003H162.002V36.2812Z" fill="#D1D1D1"/>
<path fill-rule="evenodd" clip-rule="evenodd" d="M186.673 36.2812H192.911L200.75 64.0003H194.509L193.056 58.3411H185.365L184.06 64.0003H178.401L186.673 36.2812ZM192.041 53.5514L189.139 42.2297L186.525 53.5514H192.041ZM203.071 36.2812H209.167V58.9196H218.165V64.0003H203.071V36.2812ZM216.713 36.2812H234.128V41.3585H228.469V64.0003H222.228V41.3585H216.713V36.2812ZM236.16 36.2812H242.256V47.455H248.931V36.2812H255.027V64.0003H248.931V52.682H242.256V64.0003H236.16V36.2812Z" fill="#D1D1D1"/>
<path fill-rule="evenodd" clip-rule="evenodd" d="M280.423 57.6142H270.847V10.1578H280.567V25.832C282.454 23.2202 284.777 22.0581 287.824 22.0581C291.018 22.0581 293.628 23.5095 295.808 26.4122C297.984 29.315 299 33.812 299 39.9085C299 45.7122 297.984 50.211 295.808 53.5511C293.776 56.7431 290.727 58.339 286.664 58.339C284.05 58.339 282.02 57.6125 280.567 56.1594L280.423 57.6142ZM280.567 43.1004C280.567 46.2942 280.86 48.4704 281.438 49.7754C282.02 50.9393 283.036 51.6658 284.488 51.6658C286.226 51.6658 287.39 50.6466 287.967 48.9042C288.549 47.1653 288.983 44.2643 288.983 40.0531C288.983 36.1363 288.549 33.2335 287.967 31.3448C287.389 29.4596 286.369 28.5867 284.775 28.5867C281.872 28.5867 280.566 30.62 280.566 34.9707V43.1004H280.567Z" fill="#323232"/>
<path fill-rule="evenodd" clip-rule="evenodd" d="M299.58 14.3676L299.143 17.8506H296.677L296.095 21.4781H291.596L292.178 17.8506H285.937L286.519 14.0784L294.355 4.64526H298.998L297.256 14.3676H299.58ZM293.05 14.3676L293.776 9.43327C293.483 9.86885 293.194 10.1581 292.905 10.5937L289.711 14.3676H293.05Z" fill="#323232"/>
</g>
</svg>
