<svg width="206" height="64" viewBox="0 0 206 64" fill="none" xmlns="http://www.w3.org/2000/svg">
<g opacity="0.5">
<path fill-rule="evenodd" clip-rule="evenodd" d="M130.873 20.511C132.133 20.511 133.219 21.5653 133.219 22.8265C133.219 24.0866 132.134 25.142 130.873 25.142C129.614 25.142 128.588 24.0571 128.588 22.8265C128.588 21.5948 129.614 20.511 130.873 20.511ZM199.031 38.9354V30.7408C199.031 27.81 196.374 26.8587 193.912 26.8587C192.066 26.8587 190.362 27.533 188.985 28.8216L189.636 29.8168C191.136 28.3859 192.225 28.4166 193.192 28.4034C194.54 28.4034 194.988 29.8902 194.988 31.2981C194.988 31.7371 194.9 32.1181 194.549 32.44C193.904 32.8505 193.247 33.2457 192.544 33.5172C190.969 34.1238 187.765 35.0368 187.765 37.8209C187.765 40.3707 188.835 41.5542 191.237 41.5542C192.761 41.5542 194.226 40.9871 194.989 39.6394C195.457 40.9291 196.513 41.5542 197.89 41.5542C198.71 41.5542 199.509 41.3549 200.212 41.032L200.392 40.3138C199.219 40.3718 199.031 40.0204 199.031 38.9354ZM194.983 37.7706C194.924 39.2365 194.289 39.7521 193.071 39.7521C191.81 39.7521 191.504 38.4023 191.504 37.3173C191.504 36.3802 191.679 35.7255 192.441 35.1091C193.291 34.4358 194.25 34.1719 194.982 33.849V37.7706H194.983ZM169.896 53.8926C170.219 49.7017 168.567 46.5082 163.889 46.5082C159.64 46.5082 156.818 49.439 156.818 53.5412C156.818 58.3178 159.309 61.2486 164.174 61.2486C165.611 61.2486 167.399 61.0526 168.454 60.3793L169.369 58.8729L169.018 58.609C168.109 59.371 167.038 59.8385 165.364 59.8385C162.257 59.8385 160.753 56.911 160.841 53.8926H169.896ZM163.739 47.5373C166.006 47.5373 166.392 50.9137 166.392 52.6916H160.842C160.9 50.9137 161.242 47.5373 163.739 47.5373ZM81.5058 41.9713C83.4699 41.9713 85.55 41.621 87.3082 40.7123L87.9531 38.191L87.5721 38.0158C86.2539 39.2759 84.1432 40.2142 82.3269 40.2142C77.813 40.2142 75.5763 36.967 75.5763 31.9561C75.5763 27.648 77.3149 22.809 82.1802 22.809C84.0851 22.809 85.9605 23.9235 87.0444 25.5055H87.455C87.6892 24.4796 87.8655 23.4834 88.1293 22.4871C86.4291 21.55 84.0851 21.0507 82.1506 21.0507C75.7625 21.0507 70.7121 24.7183 70.7121 32.3666C70.711 38.3727 75.2337 41.9713 81.5058 41.9713ZM125.344 27.4269V22.6579C123.937 23.3323 122.619 23.9476 121.3 24.4753V27.4269H119.307C119.396 27.7422 119.396 28.2688 119.307 28.9432H121.3V37.2691C121.3 39.9941 121.974 41.7918 125.022 41.7918C125.93 41.7918 127.086 41.6648 127.688 41.3429V40.3576C125.424 40.744 125.344 39.4182 125.344 37.8133V28.9442H127.835C127.747 28.2699 127.747 27.7433 127.835 27.428H125.344V27.4269ZM132.924 41.2892V27.0765C132.251 27.1345 131.577 27.2232 130.902 27.2232C130.228 27.2232 129.554 27.1345 128.88 27.0765V41.2892C129.553 41.2312 130.228 41.1425 130.902 41.1425C131.577 41.1425 132.251 41.2323 132.924 41.2892ZM203.407 21.5773C202.733 21.5773 202.059 21.4897 201.385 21.4306V41.275C202.058 41.2159 202.732 41.1283 203.407 41.1283C204.081 41.1283 204.754 41.2159 205.429 41.275V21.4306C204.755 21.4897 204.081 21.5773 203.407 21.5773ZM58.4547 40.8667V60.9705C59.1871 60.9114 59.9196 60.8227 60.6531 60.8227C61.3855 60.8227 62.1179 60.9114 62.8503 60.9705V40.8667C62.1179 40.9258 61.3855 41.0134 60.6531 41.0134C59.9207 41.0123 59.1882 40.9247 58.4547 40.8667ZM83.518 49.7028C83.518 48.5007 84.4519 47.823 85.5062 47.823C86.8254 47.823 88.2202 48.9189 88.6954 50.0148L89.246 50.1046L89.7705 47.661C88.7008 46.8706 87.0313 46.5082 85.5664 46.5082C82.8995 46.5082 80.5259 48.1788 80.5259 51.1677C80.5259 56.2673 87.0707 55.2119 87.0707 57.9664C87.0707 58.9933 86.0646 59.9797 85.0387 59.9797C83.4567 59.9797 81.7488 59.6152 81.0241 57.6237H80.5161C80.3981 58.556 80.2517 59.4844 80.0771 60.4078C81.2792 61.2278 83.1349 61.4293 84.5701 61.4293C88.1162 61.4293 90.2642 59.2867 90.2259 56.5618C90.1525 51.391 83.518 52.546 83.518 49.7028ZM115.423 50.2677C115.335 49.0076 115.288 47.973 115.435 46.5958C113.708 46.4337 112.083 48.5117 111.947 48.827C111.812 49.1412 111.453 49.0963 111.421 48.7405L111.333 46.7698C110.658 46.829 109.985 46.9165 109.309 46.9165C108.636 46.9165 107.962 46.829 107.287 46.7698V60.9826C107.961 60.9234 108.635 60.8359 109.309 60.8359C109.984 60.8359 110.657 60.9234 111.333 60.9826V55.6782C111.333 54.7411 111.244 53.1285 111.508 52.2789C111.859 51.0199 113.071 50.1298 114.204 50.1648C114.643 50.1758 115.233 50.3071 115.423 50.2677ZM137.158 46.552C135.676 46.552 134.213 47.0786 133.45 47.9194C133.349 48.1799 133.011 48.2883 132.966 47.8843L132.825 46.7709C132.18 46.8301 131.535 46.9176 130.89 46.9176C130.217 46.9176 129.572 46.8301 128.926 46.7709V60.9837C129.6 60.9245 130.274 60.837 130.949 60.837C131.623 60.837 132.296 60.9245 132.971 60.9837V52.9839C132.971 51.1381 133.241 48.6529 135.791 48.6529C137.842 48.6529 138.194 50.6454 138.194 53.3715V60.9837C138.867 60.9245 139.54 60.837 140.216 60.837C140.889 60.837 141.563 60.9245 142.238 60.9837V53.1153C142.238 49.2769 140.852 46.552 137.158 46.552ZM152.35 59.7038C149.156 59.7038 147.897 57.0873 147.897 53.5708C147.897 51.4019 148.746 47.8263 151.501 47.8263C153.23 47.8263 154.599 48.723 154.805 50.3345L155.285 50.559L156.308 47.8263C154.931 46.9176 152.938 46.5082 151.268 46.5082C146.667 46.5082 143.56 49.4674 143.56 54.1269C143.56 58.7284 146.696 61.2486 151.239 61.2486C152.294 61.2486 154.553 60.9125 155.374 60.179L156.393 58.4667L155.984 58.1908C155.279 59.0404 153.435 59.7038 152.35 59.7038ZM100.848 46.7589V54.7575C100.848 56.6045 100.578 59.0886 98.0286 59.0886C95.9769 59.0886 95.6255 57.096 95.6255 54.37V46.7589C94.9511 46.8169 94.2778 46.9045 93.6034 46.9045C92.9301 46.9045 92.2557 46.8169 91.5813 46.7589V54.6261C91.5813 58.4656 92.9684 61.1906 96.6611 61.1906C98.1435 61.1906 99.6073 60.664 100.369 59.8232C100.47 59.5637 100.808 59.4542 100.852 59.8582L100.994 60.9727C101.639 60.9136 102.284 60.8249 102.929 60.8249C103.602 60.8249 104.248 60.9136 104.892 60.9727V46.76C104.219 46.818 103.545 46.9056 102.87 46.9056C102.195 46.9045 101.521 46.8169 100.848 46.7589ZM73.8312 46.552C72.3489 46.552 70.8851 47.0786 70.1231 47.9194C70.0224 48.1799 69.6841 48.2883 69.6392 47.8843L69.498 46.7709C68.8532 46.8301 68.2083 46.9176 67.5635 46.9176C66.8891 46.9176 66.2442 46.8301 65.5994 46.7709V60.9837C66.2738 60.9245 66.9471 60.837 67.6215 60.837C68.2959 60.837 68.9692 60.9245 69.6447 60.9837V52.9839C69.6447 51.1381 69.914 48.6529 72.4638 48.6529C74.5155 48.6529 74.8669 50.6454 74.8669 53.3715V60.9837C75.5413 60.9245 76.2146 60.837 76.889 60.837C77.5623 60.837 78.2367 60.9245 78.9111 60.9837V53.1153C78.91 49.2769 77.5229 46.552 73.8312 46.552ZM109.573 41.2892V33.2906C109.573 31.4437 109.843 28.9596 112.392 28.9596C114.444 28.9596 114.795 30.9521 114.795 33.6782V41.2892C115.469 41.2312 116.143 41.1425 116.818 41.1425C117.492 41.1425 118.165 41.2312 118.84 41.2892V33.422C118.84 29.5825 117.453 26.8576 113.76 26.8576C112.277 26.8576 110.815 27.3842 110.052 28.225C109.952 28.4855 109.614 28.5939 109.569 28.1888L109.427 27.0765C108.782 27.1345 108.137 27.2232 107.492 27.2232C106.819 27.2232 106.174 27.1345 105.529 27.0765V41.2882C106.202 41.2301 106.876 41.1414 107.551 41.1414C108.226 41.1425 108.9 41.2323 109.573 41.2892ZM139.341 41.2892V33.2906C139.341 31.4437 139.61 28.9596 142.16 28.9596C144.212 28.9596 144.562 30.9521 144.562 33.6782V41.2892C145.236 41.2312 145.911 41.1425 146.585 41.1425C147.26 41.1425 147.933 41.2312 148.607 41.2892V33.422C148.607 29.5825 147.22 26.8576 143.527 26.8576C142.045 26.8576 140.581 27.3842 139.819 28.225C139.719 28.4855 139.381 28.5939 139.337 28.1888L139.194 27.0765C138.549 27.1345 137.905 27.2232 137.26 27.2232C136.586 27.2232 135.94 27.1345 135.296 27.0765V41.2882C135.97 41.2301 136.643 41.1414 137.319 41.1414C137.992 41.1425 138.667 41.2323 139.341 41.2892ZM173.067 26.8587C171.585 26.8587 170.122 27.3853 169.36 28.2261C169.26 28.4866 168.921 28.595 168.877 28.1899L168.735 27.0776C168.089 27.1356 167.445 27.2243 166.8 27.2243C166.126 27.2243 165.482 27.1356 164.837 27.0776V41.2892C165.51 41.2312 166.184 41.1425 166.859 41.1425C167.533 41.1425 168.207 41.2312 168.881 41.2892V33.2906C168.881 31.4437 169.151 28.9596 171.701 28.9596C173.752 28.9596 174.103 30.9521 174.103 33.6782V41.2892C174.776 41.2312 175.451 41.1425 176.125 41.1425C176.8 41.1425 177.473 41.2312 178.148 41.2892V33.422C178.148 29.5836 176.76 26.8587 173.067 26.8587ZM163.255 34.1993C163.578 30.0084 161.926 26.8138 157.249 26.8138C152.999 26.8138 150.177 29.7446 150.177 33.8468C150.177 38.6234 152.668 41.5542 157.533 41.5542C158.97 41.5542 160.757 41.3582 161.814 40.6849L162.728 39.1785L162.377 38.9146C161.468 39.6766 160.398 40.143 158.723 40.143C155.617 40.143 154.112 37.2166 154.201 34.1982L163.255 34.1993ZM157.099 27.844C159.365 27.844 159.752 31.2203 159.752 32.9983H154.202C154.261 31.2203 154.601 27.844 157.099 27.844ZM184.787 27.4269V22.6579C183.38 23.3323 182.062 23.9476 180.743 24.4753V27.4269H178.752C178.839 27.7422 178.839 28.2688 178.752 28.9432H180.743V37.2691C180.743 39.9941 181.418 41.7918 184.464 41.7918C185.373 41.7918 186.53 41.6648 187.131 41.3429V40.3576C184.867 40.744 184.787 39.4182 184.787 37.8133V28.9442H187.278C187.19 28.2699 187.19 27.7433 187.278 27.428H184.787V27.4269ZM126.307 58.6298V50.4341C126.307 47.5034 123.65 46.552 121.189 46.552C119.342 46.552 117.64 47.2264 116.261 48.516L116.913 49.5101C118.413 48.0781 119.502 48.1099 120.469 48.0967C121.816 48.0967 122.264 49.5835 122.264 50.9914C122.264 51.4304 122.177 51.8114 121.825 52.1344C121.18 52.5449 120.525 52.939 119.821 53.2106C118.245 53.8171 115.042 54.7312 115.042 57.5153C115.042 60.064 116.111 61.2486 118.513 61.2486C120.038 61.2486 121.502 60.6815 122.265 59.3338C122.734 60.6235 123.789 61.2486 125.165 61.2486C125.987 61.2486 126.785 61.0483 127.489 60.7264L127.668 60.0071C126.496 60.0662 126.307 59.7137 126.307 58.6298ZM122.26 57.4661C122.201 58.9309 121.566 59.4466 120.347 59.4466C119.087 59.4466 118.779 58.0967 118.779 57.0117C118.779 56.0746 118.956 55.4199 119.717 54.8035C120.567 54.1302 121.525 53.8663 122.259 53.5445L122.26 57.4661ZM96.2758 26.9123C91.2868 26.9123 88.6494 30.2416 88.6494 34.3482C88.6494 38.4548 91.3327 41.7841 96.2758 41.7841C101.219 41.7841 103.902 38.4548 103.902 34.3482C103.903 30.2416 101.265 26.9123 96.2758 26.9123ZM96.2758 40.7681C93.31 40.7681 92.7253 37.8943 92.7253 34.3493C92.7253 30.8043 93.7139 27.9305 96.2758 27.9305C98.8376 27.9305 99.8262 30.8043 99.8262 34.3493C99.8262 37.8943 99.2427 40.7681 96.2758 40.7681ZM174.364 56.3647C174.091 56.3641 173.822 56.4173 173.57 56.5212C173.319 56.625 173.09 56.7776 172.897 56.97C172.705 57.1625 172.552 57.391 172.448 57.6426C172.344 57.8942 172.291 58.1638 172.291 58.4361C172.291 58.7082 172.344 58.9778 172.448 59.2293C172.552 59.4808 172.705 59.7093 172.898 59.9018C173.09 60.0942 173.319 60.2467 173.57 60.3507C173.822 60.4546 174.092 60.5079 174.364 60.5074C174.636 60.5077 174.905 60.4543 175.157 60.3503C175.408 60.2463 175.637 60.0938 175.829 59.9014C176.021 59.709 176.174 59.4805 176.278 59.2291C176.382 58.9776 176.435 58.7082 176.435 58.4361C176.436 58.1639 176.382 57.8944 176.278 57.6429C176.174 57.3914 176.022 57.1628 175.829 56.9704C175.637 56.778 175.408 56.6254 175.157 56.5215C174.905 56.4175 174.636 56.3643 174.364 56.3647ZM174.369 60.3235C173.312 60.3235 172.503 59.4816 172.503 58.435C172.503 57.3653 173.301 56.5453 174.369 56.5453C175.432 56.5453 176.224 57.3708 176.224 58.4295C176.224 59.4772 175.427 60.3235 174.369 60.3235Z" fill="#D1D1D1"/>
<path fill-rule="evenodd" clip-rule="evenodd" d="M174.697 58.535C175.046 58.4792 175.329 58.2854 175.329 57.8869C175.329 57.4446 175.085 57.2114 174.531 57.2114H173.611V59.6594H173.821V58.5295H174.457L175.194 59.6594H175.427L174.697 58.535ZM174.341 58.3434H173.82V57.3909H174.496C174.79 57.3909 175.115 57.5026 175.115 57.8781C175.116 58.3051 174.712 58.3434 174.341 58.3434ZM51.5086 27.4623L55.6437 9.30499C55.9141 8.49593 56.2732 8.94589 56.5425 9.39476C56.8129 9.84473 58.3402 12.3617 60.5878 13.7991C62.8343 15.2366 68.2733 19.8217 67.7336 23.8659C67.1949 27.9112 62.0264 28.2703 55.5539 29.3486C55.2835 31.4167 53.5307 36.2251 52.3626 37.5728C51.733 38.2023 51.5984 37.7983 51.5984 37.4381C51.5984 37.4403 51.9586 28.3622 51.5086 27.4623ZM10.9702 22.1076C6.83625 23.0064 -2.51227 37.2991 1.53193 39.815C2.9705 40.624 6.29652 38.1071 7.55445 33.9731C8.81237 29.838 9.26234 26.3325 10.9702 22.1076Z" fill="#D1D1D1"/>
<path fill-rule="evenodd" clip-rule="evenodd" d="M47.67 0C40.6589 0 23.4902 5.30322 15.9394 16.8085C14.3212 19.1459 11.9849 23.9992 10.8157 29.7524C9.91685 34.1568 8.56914 39.9099 3.17505 41.8872C5.24204 42.5167 13.6917 39.91 16.2985 39.2804C17.3768 39.0111 17.6462 39.6395 17.6462 40.1793C17.6462 40.7179 18.9041 45.1234 22.6801 45.662L24.8379 55.639C25.197 57.2582 23.8493 58.965 19.804 54.7412L18.7256 58.6059C18.545 59.5496 18.6359 60.0434 19.1745 60.4036C19.7142 60.7638 21.7812 62.6512 25.8265 62.3819C26.7702 63.7745 27.1742 64 29.3321 64C31.4899 64 41.1976 63.2818 47.0394 56.09C47.4894 55.5952 47.1292 55.281 46.5906 55.7299C45.5122 56.8093 36.8829 61.7535 36.8829 55.4605C36.9727 54.2935 37.7435 53.1023 39.3101 53.2129C41.1976 53.3487 42.7259 52.7191 42.9055 52.0896C43.085 51.4612 43.1299 50.5164 42.3208 50.8766C41.872 51.147 40.3436 51.2817 39.355 51.2817C38.3664 51.2817 36.7034 50.9675 36.7932 50.0686C36.8829 49.53 36.8829 49.08 38.8153 49.1249C40.7476 49.1698 43.085 48.9454 43.8941 48.5852C43.1748 48.2261 40.5232 48.0016 38.8153 47.9568C37.8715 47.9568 37.1972 47.2834 37.1972 46.3835C37.1972 45.4836 37.4227 45.1705 38.0062 44.946L40.7476 43.8228C41.1976 43.5524 41.1067 43.3279 40.4772 43.283L38.0511 42.9239C37.5114 42.7893 37.3318 42.6546 37.3318 41.9802V31.9584C37.3318 31.3289 37.1972 30.6107 36.6574 30.2056C36.1177 29.8005 35.7137 29.4863 35.7137 28.8568C35.7137 28.2273 39.3539 25.5308 44.7918 25.5308C45.4662 25.5308 48.5678 25.4848 49.4217 25.5757C49.9166 25.6655 50.0961 25.3053 50.1859 24.8115L54.5005 6.11557C55.2209 2.24763 54.6812 0 47.67 0ZM34.6944 38.3761C34.2445 39.229 33.5712 40.7584 33.2121 41.9266C33.0402 42.4849 32.5377 43.5447 31.3246 43.5896C29.6627 43.6509 28.9423 41.2073 28.3588 38.8699C27.7753 36.5325 29.5718 35.903 30.5156 35.949C30.9655 36.0387 32.9876 36.0387 33.5723 35.9938C35.5035 35.8143 35.1444 37.5222 34.6944 38.3761Z" fill="#D1D1D1"/>
<path fill-rule="evenodd" clip-rule="evenodd" d="M42.5811 29.6177C43.435 29.5729 47.2559 29.5728 48.1537 29.6626C48.7832 29.7075 49.5462 31.5052 49.232 33.8864C49.1423 34.3363 48.423 34.3363 48.2434 33.8864C48.0628 33.4375 47.3446 32.4938 46.9855 33.4375C46.5355 34.425 44.5134 34.5159 43.9748 33.258C43.7941 32.7631 43.5478 32.7467 42.9862 32.9886C42.672 33.1233 42.1322 33.3926 41.3232 33.7068C40.7615 33.9258 40.316 33.5755 40.3795 32.9427C40.4243 32.4938 40.963 29.8871 42.5811 29.6177Z" fill="#D1D1D1"/>
</g>
</svg>
