<svg width="420" height="64" viewBox="0 0 420 64" fill="none" xmlns="http://www.w3.org/2000/svg">
<g opacity="0.5">
<path fill-rule="evenodd" clip-rule="evenodd" d="M0 27.4422V14.2468H4.42785C3.86154 15.2523 3.39209 16.3094 3.02582 17.4038C3.99151 17.4038 4.91189 17.2726 5.87519 17.0533V22.1822C4.95165 21.6582 3.94253 21.3022 2.89468 21.1306C1.93138 20.9971 2.9829 24.6381 6.13748 24.6381C9.25152 24.6381 9.29444 22.8832 9.29444 22.8832H8.32875C8.32875 22.8832 7.62773 22.8403 7.62773 22.1822C7.62773 21.5241 7.80418 20.6919 10.0384 20.122V18.3695C10.0384 18.3695 9.81901 16.8792 10.9158 16.8792C12.0127 16.8792 11.7933 18.3695 11.7933 18.3695V20.122C14.0299 20.6919 14.2039 21.5241 14.2039 22.1822C14.2039 22.8403 13.5029 22.8832 13.5029 22.8832H12.5396C12.5396 22.8832 12.5849 24.6381 15.6966 24.6381C18.8535 24.6381 19.9051 20.9995 18.9418 21.1306C18.0214 21.2618 16.8816 21.6552 15.9613 22.1822V17.0533C16.9269 17.2726 17.8473 17.4038 18.8106 17.4038C18.4439 16.3096 17.9745 15.2526 17.4086 14.2468H22.7997C22.2728 15.2984 21.7482 16.307 21.4406 17.4038C22.361 17.4038 23.3267 17.2726 24.2471 17.0533V22.1822C23.3265 21.6518 22.3162 21.2953 21.2666 21.1306C20.3462 20.9971 21.3548 24.6381 24.5118 24.6381C27.6687 24.6381 27.6687 22.8832 27.6687 22.8832H26.703C26.703 22.8832 26.002 22.8403 26.002 22.1822C26.002 21.5241 26.1785 20.6919 28.4127 20.122V18.3695C28.4127 18.3695 28.2362 16.8792 29.2901 16.8792C30.3846 16.8792 30.2105 18.3695 30.2105 18.3695V20.122C32.4018 20.6919 32.6211 21.5241 32.6211 22.1822C32.6211 22.8403 31.9201 22.8832 31.9201 22.8832H30.9544C30.9544 22.8832 30.9544 24.6381 34.1114 24.6381C37.2231 24.6381 38.277 20.9995 37.3113 21.1306C36.3909 21.2618 35.2511 21.6552 34.3761 22.1822V17.0533C35.2964 17.2726 36.2621 17.4038 37.1825 17.4038C36.815 16.3095 36.3447 15.2525 35.7781 14.2468H39.989V27.4422H0ZM36.6508 54.7985L19.8168 64L3.33341 54.3145C3.33341 54.3145 0.00238538 53.0889 0.00238538 47.7383V30.0698H39.9842V48.7016C39.9818 48.704 40.2441 53.0436 36.6508 54.7985Z" fill="#D1D1D1"/>
<path fill-rule="evenodd" clip-rule="evenodd" d="M401.74 38.6632H418.967C418.967 32.3517 417.306 23.4531 407.084 23.4531C396.914 23.4531 393.318 31.9154 393.318 37.2183C393.318 42.5212 396.037 51.2029 406.209 51.2029C416.38 51.2029 419.053 41.9084 419.053 41.9084L411.118 41.0333C411.118 41.1046 411.131 41.2096 411.147 41.3407C411.279 42.4213 411.629 45.2727 406.778 45.547C401.344 45.8117 401.74 38.6632 401.74 38.6632ZM390.824 40.8569L383.456 40.2417C383.373 41.5126 382.014 44.8889 378.9 44.8913C375.788 44.8913 374.429 42.8741 374.429 36.8249C374.429 30.7303 376.971 29.1971 378.681 29.1971C380.347 29.1971 381.401 29.7646 382.364 31.3002C383.285 32.8333 382.321 34.2807 382.321 34.2807H390.915C390.915 32.6617 388.85 23.6295 379.165 23.6295C369.431 23.6295 365.528 30.7303 365.528 37.5688C365.528 44.3214 368.425 51.2052 378.814 51.2052C389.246 51.2052 390.824 40.8569 390.824 40.8569ZM325.196 50.7212H333.877C332.998 49.4479 332.914 46.3387 332.917 46.3363V31.7818C332.917 31.7431 332.917 31.6953 332.918 31.6392C332.945 30.2364 333.07 23.6295 321.645 23.6295C309.764 23.6295 309.108 31.4313 309.108 31.4313L317.919 32.5281C316.824 31.0379 316.824 28.539 321.164 28.539C325.456 28.539 325.196 32.8787 325.196 32.8787V33.7537C322.95 34.1248 320.699 34.4619 318.443 34.7647C311.123 35.6803 308.1 39.9794 308.1 43.1793C308.1 46.4269 309.764 51.2458 317.084 51.2458C321.381 51.2458 323.877 48.704 325.196 46.5986V50.7212ZM153.218 50.5018H161.854C161.019 49.231 160.934 46.1193 160.934 46.1145V31.5601C160.934 31.5233 160.934 31.4783 160.935 31.4258C160.959 30.0411 161.071 23.4078 149.667 23.4078C137.786 23.4078 137.085 31.2096 137.085 31.2096L145.895 32.3064C144.801 30.8161 144.801 28.3173 149.14 28.3173C153.48 28.3173 153.218 32.6593 153.218 32.6593V33.5344C150.958 33.9045 148.692 34.2415 146.422 34.5454C139.145 35.461 136.076 39.7601 136.076 42.9599C136.076 46.2075 137.788 51.0264 145.065 51.0264C149.36 51.0264 151.901 48.4846 153.218 46.3792V50.5018ZM110.036 37.8764C110.036 30.1604 104.249 23.8918 97.1912 23.8918C90.1333 23.8918 84.3463 30.1604 84.3463 37.8764C84.3463 45.5041 90.1333 51.7727 97.1912 51.7727C104.249 51.7727 110.036 45.5041 110.036 37.8764ZM240.239 42.3066L233.31 43.3581C235.196 50.2825 241.51 51.2458 245.499 51.2482C249.443 51.2482 257.817 49.7984 257.817 41.999C257.817 34.4418 249.21 33.6618 247.02 33.4633C246.961 33.458 246.907 33.4531 246.858 33.4485C246.768 33.4403 246.674 33.4321 246.577 33.4236C244.653 33.2547 241.553 32.9828 241.553 30.6445C241.553 28.148 246.856 28.2338 248.477 29.2424C250.103 30.2963 249.181 32.3565 249.181 32.3565L256.72 30.4704C255.495 25.735 250.452 23.5866 246.596 23.5866C242.736 23.5866 234.669 24.7263 234.669 32.2659C234.669 39.5138 241.47 40.3311 246.121 40.8901C246.282 40.9095 246.44 40.9285 246.596 40.9475C250.907 41.5185 250.839 42.8045 250.807 43.4057C250.804 43.4522 250.802 43.4945 250.802 43.5322C250.802 44.0568 250.363 46.074 245.716 46.074C241.114 46.074 240.239 42.3066 240.239 42.3066ZM283.945 24.1112H275.395C276.786 25.5002 276.759 27.4599 276.756 27.6095C276.756 27.6156 276.756 27.6186 276.756 27.6186V39.5836C276.756 40.7663 275.745 44.8889 272.546 44.8889C269.393 44.8889 269.565 41.4697 269.565 41.4697V24.0229H260.712C262.462 25.3368 262.114 27.528 262.114 27.528V42.1683C262.114 46.3792 263.475 51.1576 269.305 51.1576C275.135 51.1576 277.105 46.6868 277.105 46.6868V50.8094H283.945V24.1112ZM290.829 50.6306H298.588V40.0223C298.588 30.5562 306.128 31.3002 306.128 31.3002V23.7154C300.474 22.1798 298.369 28.1861 298.369 28.1861V24.1088H289.558C290.917 25.0745 290.829 27.9238 290.829 27.9238V50.6306ZM339.223 28.3173V50.7665L346.236 50.7641V33.4914C347.068 31.913 348.341 30.5539 350.184 30.5539C353.644 30.5539 353.472 34.6765 353.472 34.6765V50.7665H361.055V32.3088C361.055 28.539 358.513 24.3735 353.208 24.3735C349.92 24.3735 347.554 26.4765 346.236 28.055V24.8551H337.337C338.827 26.3001 339.223 28.3173 339.223 28.3173ZM207.709 28.0979V50.5471L214.721 50.5448V33.2721C215.508 31.6936 216.827 30.3345 218.624 30.3345C222.084 30.3345 221.913 34.4571 221.913 34.4571V50.5471H229.54V32.087C229.54 28.3197 226.999 24.1541 221.693 24.1541C218.357 24.1541 215.992 26.2571 214.721 27.8356V24.6357H205.823C207.313 26.0807 207.709 28.0979 207.709 28.0979ZM191.795 19.5951V50.5471H200.257V15.3842H190.438C191.795 17.1391 191.795 19.5951 191.795 19.5951ZM166.282 19.5951V50.5471H174.744V15.3842H164.923C166.282 17.1391 166.282 19.5951 166.282 19.5951ZM116.612 60.5426H123.451L135.461 24.6834H126.386C128.007 25.909 127.437 27.6186 127.437 27.6186L123.362 39.059L118.191 24.5499H109.685C110.606 25.3821 111.483 27.3993 111.483 27.3993L119.55 51.1576L116.612 60.5426ZM73.9145 50.5471H84.2152L77.4649 34.7647C83.1637 31.212 83.1637 24.4617 83.1637 24.4617C83.1637 14.5545 72.6436 14.905 72.6436 14.905H52.6527C54.0119 16.7004 53.9236 18.9799 53.9236 18.9799V50.5471H62.8223V36.6913H68.4352L73.9145 50.5471ZM23.6297 9.1633C23.6297 8.37406 23.3221 7.67304 22.8834 7.14609C23.4721 7.252 24.0561 7.38327 24.6335 7.53952V2.71823C24.6335 2.71823 23.582 3.06873 22.0464 2.89467C22.2229 2.10304 22.5305 1.3162 23.2315 0H17.7521C18.4102 1.3162 18.7154 2.10304 18.8918 2.89467C17.4016 3.06873 16.3048 2.71823 16.3048 2.71823V7.53952C16.8977 7.38108 17.4977 7.2498 18.1026 7.14609C17.621 7.67304 17.3587 8.37406 17.3587 9.1633C17.3618 9.98801 17.691 10.778 18.2744 11.3609C18.8578 11.9439 19.648 12.2724 20.4727 12.275C22.2276 12.275 23.6297 10.8729 23.6297 9.1633ZM26.0427 8.67926C26.0427 7.49659 27.006 6.48799 28.1887 6.48799C28.7693 6.48987 29.3255 6.72134 29.736 7.13188C30.1466 7.54241 30.3781 8.09868 30.3799 8.67926C30.3781 9.25984 30.1466 9.8161 29.736 10.2266C29.3255 10.6372 28.7693 10.8686 28.1887 10.8705C27.006 10.8705 26.0427 9.86193 26.0427 8.67926ZM14.4664 8.67926C14.4664 7.49659 13.5031 6.48799 12.2751 6.48799C11.7014 6.49862 11.1549 6.73432 10.7535 7.14425C10.352 7.55418 10.1278 8.10549 10.1291 8.67926C10.1291 9.86193 11.0924 10.8705 12.2751 10.8705C12.8557 10.8686 13.412 10.6372 13.8225 10.2266C14.233 9.8161 14.4645 9.25984 14.4664 8.67926ZM32.1067 10.2296C32.5095 9.82683 33.0555 9.60028 33.6251 9.59964C33.9104 9.59555 34.1937 9.648 34.4586 9.75398C34.7235 9.85996 34.9648 10.0174 35.1685 10.2171C35.3723 10.4169 35.5344 10.655 35.6456 10.9177C35.7568 11.1805 35.8149 11.4627 35.8164 11.748C35.8193 12.0366 35.7645 12.3228 35.6554 12.5899C35.5463 12.8571 35.385 13.0998 35.181 13.3039C34.9769 13.5079 34.7342 13.6692 34.4671 13.7783C34.1999 13.8874 33.9137 13.9421 33.6251 13.9393C32.4401 13.9393 31.4768 12.976 31.4768 11.748C31.4774 11.1784 31.7039 10.6323 32.1067 10.2296ZM8.05214 9.95636C7.69204 9.71958 7.26959 9.5954 6.83865 9.59964C5.65359 9.59964 4.69029 10.5629 4.69029 11.748C4.68605 12.1789 4.81024 12.6014 5.04702 12.9615C5.2838 13.3216 5.62245 13.603 6.01979 13.7699C6.41714 13.9368 6.85518 13.9815 7.27807 13.8985C7.70097 13.8155 8.08955 13.6084 8.39429 13.3036C8.69903 12.9989 8.90612 12.6103 8.98916 12.1874C9.0722 11.7645 9.02742 11.3265 8.86054 10.9291C8.69366 10.5318 8.41223 10.1931 8.05214 9.95636ZM153.218 37.6977V42.085C151.463 45.1967 149.753 46.2077 148.966 46.2053C148.874 46.1994 148.733 46.2076 148.557 46.2179C147.308 46.2907 144.29 46.4667 144.405 42.4331C144.493 38.7087 150.411 37.8741 153.218 37.6977ZM102.451 37.7001C102.451 33.0529 100.346 29.2402 97.804 29.2402C95.2193 29.2402 93.1139 33.0505 93.1139 37.7001C93.1139 42.3044 95.2169 46.1194 97.804 46.1194C100.346 46.1194 102.451 42.3068 102.451 37.7001ZM69.7037 30.2488H62.9535V21.5695H69.7037C72.6866 21.5695 74.1316 23.7179 74.1316 25.9092C74.1316 28.1004 72.6866 30.2488 69.7037 30.2488ZM401.962 33.6251H411.252C411.24 33.5244 411.23 33.3949 411.218 33.2427C411.104 31.7372 410.821 28.0122 406.564 28.0122C401.831 28.0122 401.962 33.6251 401.962 33.6251ZM325.198 37.9171V42.3044C323.489 45.416 321.779 46.427 320.99 46.4246C320.898 46.4188 320.757 46.427 320.581 46.4372C319.331 46.5101 316.311 46.6862 316.388 42.6525C316.476 38.9281 322.437 38.0935 325.198 37.9171Z" fill="#D1D1D1"/>
</g>
</svg>
