<svg width="215" height="64" viewBox="0 0 215 64" fill="none" xmlns="http://www.w3.org/2000/svg">
<g opacity="0.5">
<path fill-rule="evenodd" clip-rule="evenodd" d="M211.901 14.2409H122.123L62.905 0H62.8524L62.7997 0.0526185L0.982422 16.9921V24.0044L62.8524 6.76754L122.229 20.9387L211.901 20.8323V14.2409ZM120.971 56.5518H123.509L122.345 53.6965L120.971 56.5518ZM98.7446 53.0662V54.3348H101.158C101.687 54.3348 102.941 54.5133 102.974 53.8052C103.013 52.9987 102.095 53.0662 101.143 53.0662H98.7446Z" fill="#D1D1D1"/>
<path fill-rule="evenodd" clip-rule="evenodd" d="M5.37537 45.8648V63.6805H207.349V45.7572L5.37537 45.8648ZM27.0679 59.1882H21.8858V50.834H27.0679V59.1882ZM48.0969 59.1882H43.0201L37.9445 55.1707L37.933 59.1882H33.1857V50.834H37.9445L43.2317 55.3812V50.834H48.0969V59.1882ZM60.7969 59.1001C55.1928 59.1001 54.3462 58.0431 53.5009 56.4565H58.3649C59.2103 56.9839 59.2103 56.9839 60.6917 56.9839C61.6446 56.9839 62.2783 56.7734 62.2783 56.4565C62.2783 55.61 53.7125 56.1396 53.7125 52.9663C53.7125 51.2745 56.991 50.4279 60.3748 50.4279C65.0283 50.4279 66.1906 51.3797 67.0371 53.0716H62.5963C60.7981 52.4367 62.0404 52.598 60.6917 52.4367C59.9424 52.3475 58.8934 52.5419 58.8934 52.7536C58.8934 54.0222 67.4592 53.2832 67.4592 56.349C67.4592 58.2536 64.2859 59.1001 60.7969 59.1001ZM87.3352 54.1114C87.3352 57.1795 87.0183 59.1882 79.9327 59.1882C73.6937 59.1882 72.3187 57.6016 72.3187 54.537V50.8352H77.606V54.537C77.606 56.4405 78.0292 56.9678 79.9327 56.9678C81.8362 56.9678 82.1531 56.4405 82.1531 54.4317V50.834H87.334V54.1114H87.3352ZM103.205 59.409L102.888 58.1404C102.677 56.8717 102.36 56.5537 100.773 56.5537H98.7643V59.409H93.6886V51.0548H102.149C105.638 51.0548 107.965 51.6897 107.965 53.3804C107.965 54.2247 107.225 54.7543 105.956 55.3892C107.859 55.9188 107.965 56.2357 108.175 59.409H103.205ZM125.404 59.409L124.769 58.3497H120.013L119.272 59.409H114.091L119.907 51.0548H125.087L130.481 59.409H125.404ZM151.209 59.409H146.238L141.161 55.0723V59.409H136.402V51.0548H141.161L146.449 55.1776V51.0548H151.208V59.409H151.209ZM164.943 59.5188C160.926 59.5188 156.697 58.0374 156.697 55.0769C156.697 52.2216 160.714 50.7402 164.943 50.7402C170.337 50.7402 171.394 52.1164 172.241 54.3379H167.482C166.635 53.2786 166.213 52.9618 164.943 52.9618C163.357 52.9618 162.088 53.9135 162.088 55.078C162.088 56.4519 163.147 57.1943 164.627 57.1943C165.895 57.1943 166.743 56.8775 168.011 56.0298H172.453C171.606 58.249 170.02 59.5188 164.943 59.5188ZM190.64 52.8474H183.028V53.9067H189.371V55.9154H183.028V57.0799H190.64V59.298H177.844V50.8386H190.64V52.8474ZM156.167 28.1314V43.7828H160.504V36.9077L163.042 43.7828H166.214L169.493 36.1676V43.7828H173.3V28.1314H167.271L164.311 34.899L162.196 28.1314H156.167ZM21.8858 28.128V43.673H25.9045V38.4898L27.9132 43.673H31.2982L33.7302 36.0589L33.7531 43.673H38.1709V28.128H32.4616L29.7115 34.8944L27.5964 28.128H21.8858ZM99.382 28.1314H93.7778L88.8074 43.7828H93.0377L94.1359 40.9275H98.8535L99.5936 43.7828H104.141L99.382 28.1314ZM95.3587 37.3413L96.5221 34.486L97.5803 37.3413H95.3587ZM149.294 28.1314H144.006L139.459 43.7828H143.901L144.747 40.9275H148.871L150.033 43.7828H154.37L149.294 28.1314ZM145.813 37.3413L146.765 34.9081L147.717 37.3413H145.813ZM14.7877 28.128H10.0289L5.37651 43.673H9.28878L10.1353 41.2398H14.528L15.4226 43.673H19.6517L14.7877 28.128ZM11.3113 37.2292L12.3694 34.4814L13.4264 37.2292H11.3113ZM193.387 28.0399L198.464 36.711V43.5837H202.801V36.6034L207.347 28.0399H203.223L200.361 32.7678L197.618 28.0399H193.387ZM106.351 28.1314V43.7828H110.475V36.6972L113.965 43.7828H119.253V28.1314H115.023V35.956L111.427 28.1314H106.351ZM85.7371 31.9339L87.8511 29.0786C86.3708 27.9152 85.2074 27.3867 83.0923 27.3867C79.2853 27.3867 75.9015 30.242 75.9015 35.5281C75.9015 40.6049 79.2853 43.6718 83.0923 43.6718C85.6307 43.6718 86.6888 42.8253 87.9563 41.3439L86.0528 38.913C84.8894 39.5479 84.1493 39.8648 83.1975 39.8648C81.3993 39.8648 80.0254 38.2782 80.0254 35.845C80.0254 33.3066 81.612 31.4042 83.6208 31.4042C84.2568 31.4054 84.7853 31.5118 85.7371 31.9339ZM67.2567 33.2036C67.2567 28.5512 64.1898 28.128 60.8049 28.128H55.4124V43.673H59.9596V38.7014H61.0177L62.9212 43.673H67.044L65.2468 37.6444C66.7282 35.9537 67.2567 35.0019 67.2567 33.2036ZM59.9424 34.7891V31.9339C61.6343 31.9339 62.9029 32.1547 62.9029 33.2117C62.9029 34.9035 61.1046 34.7891 59.9424 34.7891ZM42.5957 28.128V43.673H52.5365V39.4415H47.5661V37.9624H51.3731V33.3077H47.5661V31.9339H52.5365V28.128H42.5957ZM130.271 43.7828H134.607V37.8595H139.259V34.3693H134.607V31.8321H139.683V28.1314H130.271V43.7828ZM185.562 28.0399V43.5837H195.079V39.6715H190.108V28.0399H185.562ZM177.428 28.0399V43.5837H181.446V28.0399H177.428ZM70.5158 28.128V43.673H74.4292V28.128H70.5158ZM212.299 58.5842C210.827 58.5842 209.582 59.7304 209.582 61.2851C209.582 62.8534 210.827 63.9996 212.299 63.9996C212.655 64.0016 213.009 63.9327 213.338 63.7968C213.668 63.6609 213.967 63.4608 214.218 63.2081C214.47 62.9555 214.668 62.6553 214.802 62.3252C214.937 61.995 215.004 61.6414 215 61.2851C215.002 60.9297 214.934 60.5774 214.799 60.2486C214.664 59.9198 214.466 59.6211 214.214 59.3699C213.963 59.1186 213.664 58.9197 213.335 58.7849C213.007 58.65 212.654 58.5818 212.299 58.5842ZM212.299 63.5489C211.075 63.5489 210.121 62.588 210.121 61.2851C210.121 60.0027 211.075 59.0349 212.299 59.0349C213.508 59.0349 214.462 60.0027 214.462 61.2851C214.461 62.588 213.507 63.5489 212.299 63.5489Z" fill="#D1D1D1"/>
<path fill-rule="evenodd" clip-rule="evenodd" d="M212.73 61.4773C213.182 61.4212 213.527 61.1775 213.527 60.617C213.527 60.0027 213.168 59.7305 212.439 59.7305H211.267V62.8534H211.734V61.499H212.27L213.083 62.8534H213.606L212.73 61.4773ZM211.732 61.0975V60.1297H212.367C212.693 60.1297 213.04 60.2006 213.04 60.5896C213.04 61.0677 212.686 61.0963 212.289 61.0963L211.732 61.0975Z" fill="#D1D1D1"/>
</g>
</svg>
