<svg width="128" height="128" viewBox="0 0 128 128" fill="none" xmlns="http://www.w3.org/2000/svg">
<g opacity="0.5">
<path d="M110.893 50.792C115.107 55.0055 115.107 61.8369 110.893 66.0504C106.68 70.2639 99.8484 70.2639 95.6349 66.0504C91.4214 61.8369 91.4214 55.0055 95.6349 50.792C99.8484 46.5785 106.68 46.5785 110.893 50.792" stroke="#D1D1D1" stroke-width="8" stroke-linecap="round" stroke-linejoin="round"/>
<path d="M75.7472 31.5325C82.2351 38.0204 82.2351 48.5394 75.7472 55.0274C69.2593 61.5153 58.7403 61.5153 52.2523 55.0274C45.7644 48.5395 45.7644 38.0205 52.2523 31.5325C58.7402 25.0447 69.2592 25.0447 75.7472 31.5325" stroke="#D1D1D1" stroke-width="8" stroke-linecap="round" stroke-linejoin="round"/>
<path d="M32.3652 50.792C36.5787 55.0055 36.5787 61.8369 32.3652 66.0504C28.1517 70.2639 21.3203 70.2639 17.1068 66.0504C12.8933 61.8369 12.8933 55.0055 17.1068 50.792C21.3203 46.5785 28.1517 46.5785 32.3652 50.792" stroke="#D1D1D1" stroke-width="8" stroke-linecap="round" stroke-linejoin="round"/>
<path d="M122.667 101.333V95.4879C122.667 88.1225 116.699 82.1545 109.333 82.1545H105.061" stroke="#D1D1D1" stroke-width="8" stroke-linecap="round" stroke-linejoin="round"/>
<path d="M5.33331 101.333V95.4879C5.33331 88.1225 11.3013 82.1545 18.6666 82.1545H22.9386" stroke="#D1D1D1" stroke-width="8" stroke-linecap="round" stroke-linejoin="round"/>
<path d="M92.4746 101.333V92.7946C92.4746 82.4853 84.1173 74.1279 73.808 74.1279H54.1866C43.8773 74.1279 35.52 82.4853 35.52 92.7946V101.333" stroke="#D1D1D1" stroke-width="8" stroke-linecap="round" stroke-linejoin="round"/>
</g>
</svg>
