<svg width="19" height="10" viewBox="0 0 19 10" fill="none" xmlns="http://www.w3.org/2000/svg">
<path d="M10.456 0.455064C10.6673 0.253898 10.9485 0.142685 11.2402 0.144892C11.5319 0.1471 11.8114 0.262555 12.0196 0.466896C12.2279 0.671237 12.3486 0.948481 12.3563 1.24013C12.364 1.53177 12.2581 1.81501 12.061 2.03006L6.07597 9.51506C5.97305 9.62591 5.84885 9.71487 5.71077 9.77661C5.57269 9.83836 5.42357 9.87163 5.27235 9.87443C5.12112 9.87723 4.97087 9.8495 4.8306 9.79291C4.69033 9.73632 4.56292 9.65203 4.45597 9.54506L0.486968 5.57606C0.376438 5.47307 0.287785 5.34887 0.226297 5.21087C0.164809 5.07287 0.131747 4.9239 0.129081 4.77285C0.126416 4.62179 0.154203 4.47175 0.210785 4.33167C0.267366 4.19159 0.351583 4.06434 0.458411 3.95751C0.565239 3.85068 0.69249 3.76646 0.832572 3.70988C0.972654 3.6533 1.1227 3.62551 1.27375 3.62818C1.42481 3.63084 1.57378 3.66391 1.71178 3.72539C1.84977 3.78688 1.97398 3.87553 2.07697 3.98606L5.21797 7.12556L10.426 0.488065C10.4353 0.476484 10.4453 0.465464 10.456 0.455064ZM9.07597 8.16506L10.456 9.54506C10.5629 9.65179 10.6902 9.73589 10.8303 9.79235C10.9705 9.8488 11.1205 9.87645 11.2716 9.87365C11.4226 9.87085 11.5716 9.83766 11.7095 9.77605C11.8475 9.71444 11.9716 9.62568 12.0745 9.51506L18.0625 2.03006C18.17 1.92387 18.2551 1.79708 18.3126 1.65728C18.3701 1.51747 18.3988 1.36752 18.397 1.21638C18.3952 1.06523 18.363 0.915986 18.3023 0.777562C18.2416 0.639137 18.1536 0.514369 18.0436 0.410708C17.9336 0.307048 17.8038 0.22662 17.662 0.174229C17.5202 0.121837 17.3693 0.0985561 17.2183 0.105776C17.0674 0.112997 16.9194 0.15057 16.7832 0.216253C16.6471 0.281935 16.5256 0.374379 16.426 0.488065L11.2165 7.12556L10.489 6.39656L9.07447 8.16506H9.07597Z" fill="#454545"/>
</svg>
